<?xml version="1.0" encoding="UTF-8" standalone="no"?>
<!-- Created with Inkscape (http://www.inkscape.org/) -->

<svg
   width="95.264046mm"
   height="141.29948mm"
   viewBox="0 0 95.264046 141.29948"
   version="1.1"
   id="svg1"
   xml:space="preserve"
   xmlns:inkscape="http://www.inkscape.org/namespaces/inkscape"
   xmlns:sodipodi="http://sodipodi.sourceforge.net/DTD/sodipodi-0.dtd"
   xmlns="http://www.w3.org/2000/svg"
   xmlns:svg="http://www.w3.org/2000/svg"><sodipodi:namedview
     id="namedview1"
     pagecolor="#ffffff"
     bordercolor="#000000"
     borderopacity="0.25"
     inkscape:showpageshadow="2"
     inkscape:pageopacity="0.0"
     inkscape:pagecheckerboard="0"
     inkscape:deskcolor="#d1d1d1"
     inkscape:document-units="mm"
     showguides="false" /><defs
     id="defs1" /><g
     inkscape:label="Layer 1"
     inkscape:groupmode="layer"
     id="layer1"
     transform="translate(-331.34205,-86.91139)"><rect
       style="fill:#000000;fill-opacity:1;stroke:none;stroke-width:8.80402;stroke-linecap:round;stroke-linejoin:round;stroke-miterlimit:1.6;paint-order:stroke fill markers"
       id="rect1"
       width="95.264053"
       height="141.29938"
       x="331.34204"
       y="86.911392"
       inkscape:export-filename="ADR Asphyxiation warning example 2.svg"
       inkscape:export-xdpi="96"
       inkscape:export-ydpi="96" /><path
       id="path12"
       style="fill:#ffffff;fill-opacity:1;stroke:none;stroke-width:2.1;stroke-linecap:round;stroke-linejoin:round;stroke-miterlimit:1.6;stroke-dasharray:none;stroke-opacity:1;paint-order:stroke fill markers"
       d="m 363.74421,146.84582 c -2.65868,3e-5 -4.16982,1.51426 -5.9061,3.11919 -0.51184,0.47309 -1.02146,0.99764 -1.52963,1.53169 2.17367,0.99883 4.28168,2.80574 5.91437,5.14955 1.79808,2.58123 2.74135,5.39802 2.80655,7.88893 0.0652,2.49091 -0.758,4.67452 -2.51768,5.90041 -0.53741,0.37433 -1.12854,0.63443 -1.75596,0.79065 l 1.54357,0.79737 c 0.10665,0.006 0.18197,0.0168 0.29249,0.0212 0.52019,0.0209 1.06232,0.0174 1.50017,-0.0331 0.43784,-0.0505 0.76346,-0.18158 0.82785,-0.24598 0.19358,-0.19359 0.42482,-0.26571 0.73433,-0.35966 0.30948,-0.094 0.69107,-0.17893 1.12293,-0.25374 0.86372,-0.14959 1.92662,-0.25932 2.95744,-0.29662 v 5.2e-4 c 1.03083,-0.0374 2.02242,-0.004 2.7714,0.14831 0.37451,0.0763 0.69118,0.17453 0.94155,0.35553 0.25038,0.18102 0.42334,0.53632 0.33383,0.86145 -0.13523,0.49116 -0.47525,0.84078 -0.85111,1.08572 -0.3759,0.24492 -0.79646,0.40193 -1.17202,0.53899 -0.37555,0.13707 -0.71065,0.26115 -0.87333,0.36742 -0.0815,0.0531 -0.11016,0.0948 -0.11318,0.1018 -0.003,0.007 -0.0129,-0.005 0.0119,0.0563 -0.007,-0.0174 0.0202,0.0343 0.17777,0.0879 0.15718,0.0538 0.4073,0.10051 0.71261,0.1328 0.61063,0.0647 1.44252,0.0834 2.33423,0.14263 1.78345,0.11833 3.84333,0.3651 4.99608,1.66191 0.48403,0.54455 0.84497,0.75861 1.12086,0.83251 0.27589,0.0739 0.49938,0.0257 0.77773,-0.0589 0.27838,-0.0846 0.60053,-0.22069 1.00149,-0.20309 0.40095,0.0176 0.83511,0.215 1.27537,0.66404 0.74242,0.75728 1.51779,1.02568 2.16214,1.31672 0.32214,0.14552 0.62515,0.29478 0.85008,0.56637 0.1742,0.21035 0.19182,0.53108 0.19482,0.85111 0.0367,0.0388 0.45516,0.4685 0.90072,1.07436 0.3985,0.54196 0.8241,1.16899 0.89865,1.81229 l 0.72192,0.3607 c 0.37715,-0.003 0.82765,-0.0343 1.33429,-0.093 0.65262,-0.0756 1.3503,-0.17421 1.9668,-0.22841 0.61653,-0.0542 1.12869,-0.0887 1.54306,0.0605 0.37723,0.1358 1.22245,-0.0445 2.10944,-0.20103 0.88698,-0.15658 1.89593,-0.26107 2.62102,0.40825 0.44339,0.40927 1.36528,0.45966 2.16783,0.54467 0.40127,0.0425 0.77812,0.0791 1.08779,0.32608 0.15486,0.12345 0.27569,0.32315 0.30076,0.5395 0.0251,0.21631 -0.0243,0.43524 -0.12299,0.67541 -0.0369,0.0903 -0.10977,0.16101 -0.20103,0.19534 0,0 -0.26077,0.0975 -0.52761,0.22272 -0.13338,0.0627 -0.26864,0.13414 -0.36122,0.19327 -0.0924,0.0595 -0.12386,0.15183 -0.0801,0.0315 -0.0715,0.19675 -0.18511,0.21987 -0.25373,0.24805 -0.0686,0.0282 -0.13143,0.0408 -0.20102,0.0543 -0.13923,0.027 -0.30703,0.0453 -0.50591,0.0568 -0.39779,0.0229 -0.91418,0.0207 -1.46865,-0.01 -1.10894,-0.0609 -2.32634,-0.20192 -3.04891,-0.61909 -0.2399,-0.13846 -0.38733,-0.15072 -0.50591,-0.12712 -0.11856,0.0236 -0.23582,0.0984 -0.35967,0.22634 -0.046,0.0475 -0.0871,0.12003 -0.13022,0.17777 l 2.26498,1.13275 5.47666,18.39629 c 0.7413,2.48939 3.36061,3.90622 5.84978,3.16415 2.48915,-0.74149 3.90571,-3.36084 3.16363,-5.84977 l -6.05855,-20.3476 c -0.37115,-1.24569 -1.2414,-2.28219 -2.40398,-2.86339 L 388.968,173.12883 c -0.22714,1.03684 -0.96118,1.94007 -2.03243,2.31252 -1.63688,0.56928 -3.4393,-0.3029 -4.00958,-1.93942 l -4.55683,-13.08809 -8.31163,-4.20078 0.35605,-0.38033 8.36176,4.22558 4.62297,13.27929 c 0.48141,1.38144 1.99119,2.11147 3.37292,1.63091 1.38228,-0.48054 2.11335,-1.99059 1.63298,-3.37292 l -4.97437,-14.28905 c -0.22616,-0.64885 -0.69548,-1.18449 -1.30897,-1.49397 L 364.93948,147.129 c -0.37075,-0.1867 -0.78017,-0.2837 -1.19527,-0.28318 z m -11.097,4.28036 c -0.0991,-1e-4 -0.19767,0.002 -0.29559,0.007 -1.01699,0.0478 -1.92198,0.3461 -2.67787,0.87282 -1.59117,1.10873 -2.36491,3.10253 -2.30271,5.47667 0.0623,2.37413 0.9694,5.10898 2.71663,7.6171 1.74728,2.50814 3.99777,4.30675 6.20324,5.1878 2.20546,0.88105 4.34418,0.84646 5.93556,-0.262 1.59131,-1.10859 2.3648,-3.10252 2.3027,-5.47667 -0.0621,-2.37415 -0.9694,-5.10888 -2.71663,-7.6171 -2.47877,-3.55843 -6.09324,-5.80234 -9.16533,-5.80533 z m 32.35306,9.16998 3.87677,11.13524 c 0.0763,0.21958 0.12275,0.44187 0.14883,0.66404 l 13.96245,6.98252 0.002,-5.2e-4 c 1.3168,0.65858 2.31546,1.80779 2.79983,3.19102 l 12.2468,18.11983 c 1.36091,2.01412 4.09686,2.54391 6.11125,1.18339 2.01562,-1.36087 2.54576,-4.0984 1.18391,-6.11333 l -14.13299,-20.9119 c -0.40989,-0.60588 -0.96447,-1.09989 -1.61334,-1.43764 z m -37.09386,1.84588 c -0.38467,0.56149 -0.93379,1.35599 -0.93379,1.35599 -0.083,0.1446 -0.15225,0.29666 -0.20671,0.45424 -0.48382,0.82972 -0.61078,1.8201 -0.35191,2.74505 l 4.07158,13.66945 c 0.55315,0.0546 1.21662,0.17887 2.0221,0.39894 2.03962,0.5573 3.93827,0.79158 5.34955,0.81649 0.22572,0.004 0.41562,-0.006 0.61495,-0.0124 l -0.36691,-0.49558 -0.81287,-2.72903 c -0.67375,0.006 -1.43466,0.0785 -2.12855,0.0475 -0.50478,-0.0225 -0.98883,-0.1008 -1.38286,-0.37517 -0.29844,-0.20783 -0.40231,-0.63053 -0.49403,-1.04903 -0.17454,0.012 -0.62763,0.0561 -1.24592,-0.031 -0.3639,-0.0513 -0.73213,-0.1356 -1.03507,-0.34158 -0.15146,-0.103 -0.28878,-0.24632 -0.36742,-0.43357 -0.0786,-0.18731 -0.0862,-0.40762 -0.0289,-0.62115 0.11738,-0.43805 0.48223,-0.70498 0.84956,-0.83612 0.36731,-0.13112 0.76707,-0.16796 1.13068,-0.19896 0.36361,-0.031 0.69761,-0.0594 0.85938,-0.10748 0.0361,-0.0106 0.0233,-0.007 0.0372,-0.014 -0.0519,-0.14773 -0.16361,-0.33305 -0.30282,-0.52554 -0.14805,-0.20553 -0.31188,-0.4033 -0.42168,-0.63666 -0.0548,-0.11668 -0.10619,-0.25442 -0.0822,-0.42581 0.024,-0.17136 0.15382,-0.33924 0.29869,-0.42375 0.28972,-0.16904 0.63584,-0.18358 1.21285,-0.16588 0.40471,0.0124 0.81885,-0.0432 1.23713,-0.11937 l -0.57412,-1.92857 c -1.88246,-1.02904 -3.7032,-2.65964 -5.17643,-4.77438 -0.73434,-1.05412 -1.32387,-2.14786 -1.77147,-3.2427 z m 5.66581,21.03386 c -0.27394,0.22471 -0.74394,0.55603 -1.54306,0.69505 -0.14111,0.0246 -0.28871,0.0405 -0.44235,0.0455 0.105,0.31325 0.25317,0.61034 0.44028,0.88264 l 0.0501,0.0682 c 0.6908,0.12938 1.28623,0.20271 1.77457,0.11524 1.0603,-0.1899 1.27251,-0.22279 2.26342,-0.43925 0,0 0.52658,-0.15831 1.16221,-0.25012 0.63564,-0.0918 1.38654,-0.16589 1.95285,0.20103 0.47163,0.30555 1.21522,0.67392 1.99781,0.79943 l -1.20354,-1.62626 c -0.4312,-0.0284 -0.92779,0.0563 -1.42886,0.13333 -0.3189,0.0491 -0.63896,0.0925 -0.95704,0.0687 -0.22916,-0.0171 -0.44328,-0.14222 -0.65423,-0.262 -0.12475,0.07 -0.65535,0.38633 -1.42007,0.5178 -0.42442,0.0729 -0.89407,0.0807 -1.32808,-0.11163 -0.29852,-0.13225 -0.47355,-0.50344 -0.66404,-0.83767 z m 2.33732,2.91197 c -0.25257,0.027 -0.53452,0.10606 -0.83922,0.21704 -0.48679,0.17731 -0.99642,0.42025 -1.50896,0.56637 l 2.37092,3.20187 c 0.20484,-0.028 0.53007,-0.12234 0.93689,-0.23306 0.45929,-0.12495 1.01081,-0.24763 1.62109,-0.22272 0.48581,0.0198 0.57639,-0.0711 0.81081,-0.23668 0.23434,-0.16569 0.59582,-0.41428 1.24953,-0.46457 0.40533,-0.0312 0.84221,-0.43475 1.0294,-0.88315 0.0938,-0.22419 0.12142,-0.44665 0.0899,-0.59945 -0.0315,-0.15279 -0.088,-0.23917 -0.25579,-0.31057 -0.42674,-0.18159 -1.37636,-0.2965 -2.32028,-0.40411 -0.94392,-0.10762 -1.8858,-0.20354 -2.52181,-0.53537 -0.1867,-0.0975 -0.40992,-0.12258 -0.66249,-0.0956 z m 4.06849,7.68945 c -0.36838,0.002 -0.6612,0.0458 -0.7612,0.0858 -0.12115,0.0485 -0.25743,0.0795 -0.40101,0.10439 l 1.43868,1.94355 c 0.0802,0.0182 0.14946,0.0254 0.23409,0.0481 0.85836,0.22956 2.07728,0.0582 3.24373,-0.11162 1.16647,-0.16985 2.28115,-0.37776 3.098,0.0744 0.62693,0.34707 1.28067,0.68366 1.84382,0.87488 0.0175,0.006 0.0323,0.008 0.0496,0.014 0.049,-0.82539 -0.19176,-1.64201 -0.68058,-2.30891 l -0.15968,-0.21549 c -0.24627,-0.001 -0.49639,-0.0115 -0.73122,5.2e-4 -0.81017,0.0415 -1.4914,0.1411 -1.84537,0.1664 -0.0442,-0.007 -0.0866,-0.0222 -0.12506,-0.045 l 0.0305,0.0388 c -0.5342,-0.10685 -3.63613,-0.67663 -5.23379,-0.66973 z m 66.62797,6.88743 -1.02112,0.19327 c -0.31838,0.4245 -0.69281,0.81555 -1.15652,1.12862 -1.64554,1.11139 -3.72801,1.07728 -5.31854,0.0966 l -7.4812,1.41594 c 0.49987,2.59051 -1.04095,5.19939 -3.62148,5.96811 -2.74818,0.81927 -5.65455,-0.75216 -6.47299,-3.50056 l -0.1571,-0.5271 -21.45192,4.0597 v -5.26686 h -47.85754 l -0.72554,0.71158 v 23.2668 H 426.606 Z" /><path
       id="path13"
       style="opacity:1;fill:#dadada;fill-opacity:1;stroke:none;stroke-width:2.1;stroke-linecap:round;stroke-linejoin:round;stroke-miterlimit:1.6;stroke-dasharray:none;stroke-opacity:1;paint-order:stroke fill markers"
       d="m 369.74642,171.20557 c -2.02919,0.0735 -4.20547,0.43516 -4.57853,0.80822 -0.74612,0.74612 -4.61987,0.20257 -4.61987,0.20257 -1.96646,-1.11912 -4.15235,0.40783 -6.36809,0.34003 -2.21575,-0.0678 -0.61082,0.85933 -0.33951,1.76372 0.27132,0.90438 -2.56442,0.082 -2.89388,1.31155 -0.32946,1.22957 2.53214,0.99477 2.53214,0.99477 0.0452,2.19313 2.91704,1.10766 4.72581,1.4242 1.80877,0.31653 2.53191,2.87176 2.21537,3.437 -0.31653,0.56524 -3.86611,0.74601 -8.00364,-0.38447 -4.13757,-1.13049 -4.29599,0.38423 -4.40904,0.42943 3.09752,3.75317 5.60276,1.1715 5.60276,1.1715 0.57554,2.14231 3.3569,0.54364 3.3569,0.54364 0.7674,0.70344 2.27054,-0.19159 3.48558,0.12816 1.21505,0.31975 3.61289,-0.28806 4.98781,-0.38396 1.37488,-0.0959 0.86325,0.38396 2.78174,0.63976 1.91849,0.25579 1.98251,-2.11046 3.35742,-1.59887 1.37492,0.5116 3.19747,0.60727 3.32537,-0.12816 0.1279,-0.73544 1.05544,-0.63932 2.43035,-0.70332 1.37492,-0.0639 2.33416,1.24717 1.53479,1.34307 -0.79937,0.0959 -1.1191,0.54364 -1.0232,1.05524 0.0959,0.5116 -1.0551,1.53446 -2.27014,1.37459 -1.21505,-0.15988 -2.36627,0.83147 -2.36627,0.83147 -0.79934,0.31975 -0.4156,-0.54351 -2.52594,-0.22376 -2.11034,0.31972 -4.02914,-0.12771 -5.27616,0.0961 -1.24702,0.22382 -1.27867,-0.67179 -2.65359,-0.16019 -1.37492,0.51157 -2.91133,-0.20913 -3.71398,-0.72916 -0.80264,-0.52007 -2.82515,0.0899 -2.82515,0.0899 -1.0232,0.22383 -1.23103,0.25567 -2.30219,0.44752 -1.07116,0.19185 -2.35623,-0.24403 -4.05195,-0.53796 -1.69572,-0.29392 -3.5497,-0.2261 -5.01933,0.27131 -1.46962,0.49738 -1.46984,-0.31613 -3.14296,-0.29353 -1.6731,0.0226 -1.60535,0.79112 -1.65055,1.60507 -0.0452,0.81394 3.09795,0.27143 4.27365,0.11317 1.17567,-0.15827 3.66282,0.20361 3.66282,0.20361 1.80877,1.24356 4.02412,0.11267 5.13199,-0.0682 1.10788,-0.18087 2.57785,-1.28832 3.61786,-0.74569 1.04005,0.54263 3.75308,0.47436 4.81573,0.92655 1.06266,0.45219 0.20367,2.37405 -0.97203,2.46445 -1.1757,0.0904 -0.99484,0.74645 -2.10272,0.70125 -1.10787,-0.0452 -2.05785,0.45231 -2.62309,0.47491 -0.56524,0.0226 -1.06256,0.76845 -1.71824,0.40669 -0.65568,-0.36175 -2.62279,-0.36185 -4.02456,-0.4749 -1.40179,-0.11305 -1.5823,-0.83624 -2.30581,-0.58757 -0.72351,0.24871 -2.21996,0.75293 -3.72277,-0.27026 -1.50282,-1.0232 -1.56663,0.12782 -2.4939,0.47955 -0.92727,0.35172 -2.37527,-0.18669 -3.59616,-0.20929 -1.22092,-0.0226 -0.56538,1.15289 0.24856,1.42421 0.81392,0.27131 1.28913,1.76368 0.0682,1.67328 -1.22092,-0.0904 -1.04006,0.88164 -2.01228,2.44171 -0.97221,1.56006 1.78618,1.01762 2.55488,1.31155 0.76873,0.29392 1.44695,0.90422 4.36356,0.70073 2.91664,-0.20348 2.71281,1.15304 1.67277,1.17564 -1.04004,0.0226 -2.55272,0.9591 -1.4919,1.24334 1.06081,0.28425 0.54263,0.33931 0.18087,1.76371 -0.36175,1.42441 2.93906,2.19297 3.43648,0.79117 0.49741,-1.40179 4.18276,-1.96696 5.29063,-1.62781 1.10787,0.33914 -0.74567,0.2101 -1.19837,1.89963 -0.45271,1.68949 4.04709,1.80867 5.4715,1.80867 1.4244,0 2.96209,-1.04024 2.96209,-1.04024 2.48705,0 4.56518,-2.80331 6.03012,-1.95751 1.46497,0.8458 5.56331,0.10408 6.11126,1.05317 0.54796,0.94909 -2.33172,1.0454 -3.30109,1.60507 -0.96937,0.55967 0.58777,1.10814 1.53737,2.05775 0.94961,0.9496 -0.56534,0.72367 -0.56534,1.85415 0,1.13048 2.1031,0.11279 2.26136,0.22583 1.80709,3.12997 4.3863,1.0402 4.3863,2.03502 0,0.99482 2.1363,0.80977 2.1363,0.80977 3.00563,0 1.30018,-18.35502 1.30018,-19.55333 0,-1.19831 1.98954,-0.76843 1.98954,-0.76843 1.36787,1.36788 4.25091,1.67282 4.25091,0.76843 0,-0.90439 1.48045,-0.45535 2.39623,-0.70073 0.91575,-0.24538 1.15342,0.33919 1.15342,-0.72347 0,-1.06265 0.58763,-1.24386 2.41897,-1.24386 1.83135,0 1.32284,-1.50318 1.76372,-1.94406 0.4409,-0.44089 0.86408,-1.82947 2.03502,-1.15342 1.17094,0.67604 4.88346,0.70087 4.97386,0.45217 0.0904,-0.24871 1.17563,-0.65526 1.17563,-0.65526 0.67829,-1.65052 -2.17037,-0.61076 -3.34604,-1.69602 -1.1757,-1.08526 -3.48216,0.27159 -4.61264,-0.13539 -1.13048,-0.40697 -5.87816,0.94935 -5.78776,-0.13591 0.0904,-1.08527 -1.74925,-2.98276 -1.74925,-2.98276 0.22382,-1.50282 -1.56696,-1.05544 -3.1657,-2.68615 -1.59874,-1.63069 -2.1425,1.05524 -4.18889,-1.24695 -2.04639,-2.30219 -7.87624,-1.1106 -8.28322,-2.12803 -0.40697,-1.01744 2.55526,-0.81396 2.98484,-2.37402 0.21479,-0.78003 -1.66772,-0.99487 -3.69694,-0.92139 z m -24.12049,4.3248 c -1.28981,-0.006 -2.62117,0.19736 -3.92689,0.55346 0,0 -1.76362,0.0903 -1.37924,1.0852 0.38436,0.99482 -0.33869,1.35677 -1.46917,1.22111 -1.13046,-0.13566 -2.03488,1.96681 0.27131,1.87638 2.30616,-0.0904 3.52711,0.54253 5.01933,-0.47491 1.49225,-1.01743 1.60529,-0.56506 2.10271,-1.24334 0.49741,-0.67826 2.32838,-2.73587 0.65526,-2.93935 -0.41828,-0.0509 -0.84337,-0.0764 -1.27331,-0.0786 z m 26.47435,12.04061 c 0.79444,-0.004 1.67909,0.11443 2.20194,0.38292 0.83653,0.42958 1.13047,1.35649 2.55488,1.71824 1.42441,0.36175 0.40702,1.37909 -0.5426,1.89911 -0.94959,0.52006 -1.69584,-0.0452 -2.57762,-0.0904 -0.88178,-0.0452 -3.18759,-0.11275 -4.49895,-0.76843 -1.31135,-0.65568 -3.39187,-0.5657 -4.00234,-1.17616 -0.61045,-0.61044 1.22134,-1.03983 1.89962,-1.60507 0.67829,-0.56522 3.73052,-0.22634 3.73052,-0.22634 0.31371,-0.0848 0.75791,-0.13132 1.23455,-0.13384 z m -12.12277,5.85701 c 1.67895,-0.007 4.75244,0.56518 5.30355,0.67541 v 5.1e-4 c 0.63307,-0.0452 2.83024,-0.40676 4.43126,0.0222 1.601,0.42899 4.58507,0.50487 6.03994,0.50487 1.45483,0 0.97507,1.83862 0.68729,2.33423 -0.28775,0.49561 -3.02123,0.54364 -3.64473,0.28784 -0.62351,-0.25584 -1.96678,-0.47975 -2.71818,-0.0641 -0.75139,0.41568 -2.15019,-0.25925 -3.41633,-0.96015 -1.26614,-0.70093 -4.31874,0.58771 -6.26319,0.0677 -1.94442,-0.52002 -2.26084,0.29411 -2.26084,1.22111 0,0.92699 -1.40158,0.70101 -2.23811,0.2036 -0.83656,-0.49741 -3.48201,0.24838 -5.22293,-1.06298 -1.74096,-1.31135 0.18066,-2.1479 1.78593,-2.73575 1.60528,-0.58785 5.60749,0.023 6.62492,-0.38396 0.19077,-0.0763 0.50397,-0.10889 0.89142,-0.11058 z" /><path
       d="m 348.9249,109.22952 -2.31989,-12.231863 h 2.00836 l 1.46484,8.402103 1.77637,-8.402103 h 2.33315 l 1.70346,8.543953 1.49135,-8.543953 h 1.97522 l -2.35966,12.231863 h -2.08127 l -1.93545,-9.14469 -1.92882,9.14469 z m 19.44729,0 h -2.13431 l -0.84841,-2.77845 h -3.88416 l -0.80202,2.77845 h -2.08126 l 3.78472,-12.231863 h 2.07465 z m -3.6124,-4.83934 -1.33891,-4.538978 -1.31239,4.538978 z m 4.65966,4.83934 V 96.997657 h 4.1294 q 1.55764,0 2.26023,0.333748 0.70923,0.325404 1.13343,1.168118 0.42421,0.842714 0.42421,1.927397 0,1.37671 -0.64294,2.27783 -0.64294,0.89277 -1.92219,1.1264 0.63631,0.46725 1.04726,1.02627 0.41758,0.55903 1.12018,1.9858 l 1.18645,2.3863 h -2.3464 l -1.41844,-2.66164 q -0.75562,-1.42677 -1.03401,-1.79389 -0.27839,-0.37547 -0.58992,-0.50897 -0.31152,-0.14184 -0.98761,-0.14184 h -0.39769 v 5.10634 z m 1.96196,-7.05877 h 1.45159 q 1.41182,0 1.76311,-0.15019 0.3513,-0.15018 0.55014,-0.5173 0.19885,-0.36713 0.19885,-0.91781 0,-0.617436 -0.26513,-0.992902 -0.2585,-0.38381 -0.73574,-0.483935 -0.23861,-0.04172 -1.4317,-0.04172 h -1.53112 z m 7.85447,7.05877 V 96.997657 h 1.90894 l 3.97695,8.168483 v -8.168483 h 1.82277 v 12.231863 h -1.96859 l -3.9173,-7.97658 v 7.97658 z m 9.72364,0 V 96.997657 h 1.96197 v 12.231863 z m 3.85102,0 V 96.997657 h 1.90894 l 3.97695,8.168483 v -8.168483 h 1.82277 v 12.231863 h -1.96859 l -3.9173,-7.97658 v 7.97658 z m 14.30376,-4.49725 v -2.0609 h 4.22883 v 4.87273 q -0.61643,0.75093 -1.78963,1.32664 -1.16657,0.56738 -2.36629,0.56738 -1.52449,0 -2.65792,-0.801 -1.13343,-0.80934 -1.70346,-2.30286 -0.57003,-1.50187 -0.57003,-3.26239 0,-1.91071 0.63631,-3.395885 0.63631,-1.485179 1.86253,-2.277831 0.93459,-0.60909 2.32652,-0.60909 1.80951,0 2.82364,0.959526 1.02075,0.951182 1.31239,2.63661 l -1.9487,0.4589 q -0.20548,-0.901117 -0.77551,-1.418426 -0.5634,-0.525653 -1.41182,-0.525653 -1.28587,0 -2.04813,1.026275 -0.75561,1.026274 -0.75561,3.045454 0,2.1777 0.76887,3.27073 0.76888,1.08468 2.01499,1.08468 0.61643,0 1.23285,-0.30037 0.62306,-0.30872 1.06715,-0.74259 v -1.55193 z"
       id="text17"
       style="font-weight:bold;font-size:17.0879px;font-family:Arial;-inkscape-font-specification:'Arial, Bold';fill:#cf1521;stroke-width:0.700003;stroke-linecap:round;stroke-linejoin:round;stroke-miterlimit:1.6;paint-order:stroke fill markers"
       aria-label="WARNING" /></g></svg>
