<?xml version="1.0" encoding="UTF-8" standalone="no"?>
<!-- Created with Inkscape (http://www.inkscape.org/) -->

<svg
   width="174.24541mm"
   height="107.73919mm"
   viewBox="0 0 174.24541 107.73919"
   version="1.1"
   id="svg1"
   xml:space="preserve"
   xmlns:inkscape="http://www.inkscape.org/namespaces/inkscape"
   xmlns:sodipodi="http://sodipodi.sourceforge.net/DTD/sodipodi-0.dtd"
   xmlns="http://www.w3.org/2000/svg"
   xmlns:svg="http://www.w3.org/2000/svg"><sodipodi:namedview
     id="namedview1"
     pagecolor="#ffffff"
     bordercolor="#000000"
     borderopacity="0.25"
     inkscape:showpageshadow="2"
     inkscape:pageopacity="0.0"
     inkscape:pagecheckerboard="0"
     inkscape:deskcolor="#d1d1d1"
     inkscape:document-units="mm"
     showguides="false" /><defs
     id="defs1" /><g
     inkscape:label="Layer 1"
     inkscape:groupmode="layer"
     id="layer1"
     transform="translate(-521.41523,-110.41176)"><rect
       style="opacity:1;fill:#ffffff;fill-opacity:1;stroke:#000000;stroke-width:0.4;stroke-linecap:round;stroke-linejoin:miter;stroke-miterlimit:1.6;stroke-dasharray:none;stroke-opacity:1;paint-order:normal"
       id="rect23"
       width="173.8454"
       height="107.33919"
       x="521.61523"
       y="110.61176" /><text
       xml:space="preserve"
       style="font-style:normal;font-variant:normal;font-weight:normal;font-stretch:normal;font-size:6.96799px;font-family:Arial;-inkscape-font-specification:'Arial, Normal';font-variant-ligatures:normal;font-variant-caps:normal;font-variant-numeric:normal;font-variant-east-asian:normal;text-align:center;text-anchor:middle;opacity:1;fill:#000000;fill-opacity:1;stroke:none;stroke-width:0.4;stroke-linecap:round;stroke-linejoin:miter;stroke-miterlimit:1.6;stroke-dasharray:none;stroke-opacity:1;paint-order:normal"
       x="608.31335"
       y="119.54855"
       id="text24"><tspan
         sodipodi:role="line"
         id="tspan23"
         style="font-style:normal;font-variant:normal;font-weight:normal;font-stretch:normal;font-size:6.96799px;font-family:Arial;-inkscape-font-specification:'Arial, Normal';font-variant-ligatures:normal;font-variant-caps:normal;font-variant-numeric:normal;font-variant-east-asian:normal;fill:#000000;fill-opacity:1;stroke:none;stroke-width:0.4"
         x="608.31335"
         y="119.54855">DANGER</tspan></text><text
       xml:space="preserve"
       style="font-style:normal;font-variant:normal;font-weight:normal;font-stretch:normal;font-size:6.60188px;font-family:Arial;-inkscape-font-specification:'Arial, Normal';font-variant-ligatures:normal;font-variant-caps:normal;font-variant-numeric:normal;font-variant-east-asian:normal;text-align:center;text-anchor:middle;opacity:1;fill:#000000;fill-opacity:1;stroke:none;stroke-width:0.4;stroke-linecap:round;stroke-linejoin:miter;stroke-miterlimit:1.6;stroke-dasharray:none;stroke-opacity:1;paint-order:normal"
       x="608.76843"
       y="160.59334"
       id="text25"><tspan
         sodipodi:role="line"
         id="tspan24"
         style="font-style:normal;font-variant:normal;font-weight:normal;font-stretch:normal;font-size:6.60188px;font-family:Arial;-inkscape-font-specification:'Arial, Normal';font-variant-ligatures:normal;font-variant-caps:normal;font-variant-numeric:normal;font-variant-east-asian:normal;fill:#000000;fill-opacity:1;stroke:none;stroke-width:0.4"
         x="608.76843"
         y="160.59334">THIS UNIT IS UNDER FUMIGATION</tspan><tspan
         sodipodi:role="line"
         style="font-style:normal;font-variant:normal;font-weight:normal;font-stretch:normal;font-size:6.60188px;font-family:Arial;-inkscape-font-specification:'Arial, Normal';font-variant-ligatures:normal;font-variant-caps:normal;font-variant-numeric:normal;font-variant-east-asian:normal;fill:#000000;fill-opacity:1;stroke:none;stroke-width:0.4"
         x="608.76843"
         y="168.84569"
         id="tspan25">WITH ( fumigant name ) APPLIED ON</tspan><tspan
         sodipodi:role="line"
         style="font-style:normal;font-variant:normal;font-weight:normal;font-stretch:normal;font-size:6.60188px;font-family:Arial;-inkscape-font-specification:'Arial, Normal';font-variant-ligatures:normal;font-variant-caps:normal;font-variant-numeric:normal;font-variant-east-asian:normal;fill:#000000;fill-opacity:1;stroke:none;stroke-width:0.4"
         x="608.76843"
         y="177.09804"
         id="tspan26">( date )</tspan><tspan
         sodipodi:role="line"
         style="font-style:normal;font-variant:normal;font-weight:normal;font-stretch:normal;font-size:6.60188px;font-family:Arial;-inkscape-font-specification:'Arial, Normal';font-variant-ligatures:normal;font-variant-caps:normal;font-variant-numeric:normal;font-variant-east-asian:normal;fill:#000000;fill-opacity:1;stroke:none;stroke-width:0.4"
         x="608.76843"
         y="185.35039"
         id="tspan27">( time )</tspan><tspan
         sodipodi:role="line"
         style="font-style:normal;font-variant:normal;font-weight:normal;font-stretch:normal;font-size:6.60188px;font-family:Arial;-inkscape-font-specification:'Arial, Normal';font-variant-ligatures:normal;font-variant-caps:normal;font-variant-numeric:normal;font-variant-east-asian:normal;fill:#000000;fill-opacity:1;stroke:none;stroke-width:0.4"
         x="608.76843"
         y="193.60274"
         id="tspan28">VENTILATED ON ( date )</tspan><tspan
         sodipodi:role="line"
         style="font-style:normal;font-variant:normal;font-weight:normal;font-stretch:normal;font-size:6.60188px;font-family:Arial;-inkscape-font-specification:'Arial, Normal';font-variant-ligatures:normal;font-variant-caps:normal;font-variant-numeric:normal;font-variant-east-asian:normal;fill:#000000;fill-opacity:1;stroke:none;stroke-width:0.4"
         x="608.76843"
         y="201.85509"
         id="tspan29" /></text><text
       xml:space="preserve"
       style="font-style:normal;font-variant:normal;font-weight:normal;font-stretch:normal;font-size:6.60188px;font-family:Arial;-inkscape-font-specification:'Arial, Normal';font-variant-ligatures:normal;font-variant-caps:normal;font-variant-numeric:normal;font-variant-east-asian:normal;text-align:center;text-anchor:middle;opacity:1;fill:#000000;fill-opacity:1;stroke:none;stroke-width:0.4;stroke-linecap:round;stroke-linejoin:miter;stroke-miterlimit:1.6;stroke-dasharray:none;stroke-opacity:1;paint-order:normal"
       x="608.3252"
       y="208.68349"
       id="text35"><tspan
         sodipodi:role="line"
         style="font-style:normal;font-variant:normal;font-weight:normal;font-stretch:normal;font-size:6.60188px;font-family:Arial;-inkscape-font-specification:'Arial, Normal';font-variant-ligatures:normal;font-variant-caps:normal;font-variant-numeric:normal;font-variant-east-asian:normal;fill:#000000;fill-opacity:1;stroke:none;stroke-width:0.4"
         x="608.3252"
         y="208.68349"
         id="tspan35">DO NOT ENTER</tspan></text><path
       id="path40"
       style="color:#000000;fill:#000000;stroke-linecap:round;stroke-miterlimit:5.8;-inkscape-stroke:none"
       d="m 608.76188,128.66191 c -3.27587,0 -5.37416,1.64959 -6.36292,3.77548 -0.98876,2.1259 -0.88164,4.72247 0.22273,6.63888 0.54303,0.94055 1.751,0.87111 2.22415,0.97461 0.17337,0.0379 0.25427,0.10411 0.34003,0.33177 0.0171,0.0454 0.0328,0.10234 0.0486,0.16071 -0.45289,-0.17142 -2.50638,-0.95254 -3.24993,-1.30328 -0.81342,-0.38368 -1.33444,-1.19428 -1.73633,-1.77302 -0.40734,-0.58654 -1.24306,-1.54511 -2.4784,-1.54512 -0.31896,0 -0.53888,0.12125 -0.65629,0.31057 -0.11741,0.18932 -0.14057,0.42662 -0.13643,0.66766 0.004,0.24104 0.0391,0.48861 0.0548,0.69918 0.0157,0.21057 0.002,0.38413 -0.0372,0.44959 -0.12,0.20251 -0.21122,0.2606 -0.37724,0.36897 -0.16603,0.10836 -0.3968,0.25623 -0.74207,0.60151 -0.19633,0.19633 -0.21709,0.45947 -0.12299,0.69143 0.0941,0.23196 0.28835,0.44719 0.52348,0.6289 0.23513,0.18171 0.51322,0.32815 0.7829,0.40463 0.26969,0.0765 0.53634,0.0864 0.74414,-0.0336 0.29974,-0.17303 0.92235,-0.19905 1.45728,-0.16588 0.53285,0.033 0.97679,0.1146 0.9803,0.11524 h 0.004 l 5.31854,2.07842 c 0.007,0.0536 0.0109,0.091 0.0191,0.154 0.01,0.0744 0.0227,0.14617 0.0377,0.21601 -0.061,0.0253 -1.20393,0.49931 -2.48667,0.98908 -0.65863,0.25147 -1.34532,0.50138 -1.91823,0.68937 -0.57291,0.18798 -1.04728,0.31057 -1.22422,0.31057 -0.41932,0 -1.03557,-0.079 -1.60765,-0.1173 -0.28604,-0.0191 -0.56193,-0.0274 -0.80099,-0.01 -0.23906,0.0179 -0.44224,0.057 -0.58963,0.1602 -0.24567,0.17197 -0.54183,0.4157 -0.72088,0.70693 -0.0895,0.14561 -0.15158,0.30643 -0.15245,0.47491 -8.7e-4,0.16848 0.0625,0.34266 0.19947,0.50177 0.26547,0.30829 0.56744,0.40062 0.77515,0.48215 0.10386,0.0408 0.18247,0.0787 0.22893,0.12712 0.0465,0.0484 0.0739,0.10986 0.0739,0.23616 0,0.26462 -0.0966,0.56895 -0.14056,0.85163 -0.0219,0.14134 -0.0312,0.27821 0.002,0.40824 0.0332,0.13004 0.11704,0.2513 0.25373,0.33021 0.24981,0.14424 0.65315,0.27729 1.08004,0.3049 0.42688,0.0276 0.88133,-0.0534 1.19734,-0.36949 0.2946,-0.2946 0.69168,-0.77298 1.09399,-1.22473 0.40232,-0.45175 0.81683,-0.87748 1.1095,-1.04645 0.14709,-0.0849 0.54259,-0.26762 1.04076,-0.48834 0.49817,-0.22071 1.10233,-0.48202 1.68775,-0.73071 1.13507,-0.48217 2.15723,-0.90532 2.22106,-0.93172 0.16809,0.0875 0.33925,0.16305 0.50901,0.22117 0.82493,0.28246 1.60765,0.26562 1.60765,0.26562 0.51804,-4.2e-4 1.14629,-0.10103 1.72393,-0.32091 0.14344,0.0666 2.32039,1.07421 3.56102,1.40663 0.61011,0.16348 1.12662,0.50605 1.51567,0.85576 0.38906,0.3497 0.65095,0.70986 0.75189,0.8847 0.22414,0.38823 0.81444,1.20096 2.09962,1.20096 0.63874,0 0.95065,-0.16399 1.07435,-0.38654 0.0619,-0.11127 0.0706,-0.22881 0.0584,-0.32607 -0.0122,-0.0973 -0.0438,-0.17468 -0.0739,-0.22686 -0.0847,-0.14658 -0.16795,-0.34979 -0.16795,-0.74208 0,-0.17761 0.0645,-0.31723 0.18913,-0.43718 0.12463,-0.11994 0.31324,-0.21591 0.55087,-0.27957 0.13047,-0.035 0.24278,-0.0786 0.33383,-0.14469 0.091,-0.0661 0.15835,-0.15984 0.18759,-0.27544 0.0585,-0.23119 -0.01,-0.5306 -0.18139,-0.99994 -0.10071,-0.27528 -0.37331,-0.43594 -0.70331,-0.52917 -0.32999,-0.0932 -0.73109,-0.12503 -1.13688,-0.13074 -0.4058,-0.006 -0.81663,0.0168 -1.16014,0.0351 -0.34351,0.0184 -0.62542,0.0318 -0.74414,0.0176 -0.11145,-0.0134 -0.48003,-0.12022 -0.93328,-0.2713 -0.45324,-0.15108 -1.00587,-0.34761 -1.54099,-0.54105 -1.04764,-0.3787 -2.00285,-0.74052 -2.0438,-0.75603 0.019,-0.10375 0.03,-0.21126 0.03,-0.32401 0,-0.20117 -9e-4,-0.33817 -0.002,-0.48524 0.0686,-0.0272 1.14807,-0.45477 2.34715,-0.90175 0.61879,-0.23068 1.25932,-0.46203 1.78335,-0.63666 0.26202,-0.0873 0.49507,-0.15923 0.68161,-0.21084 0.18655,-0.0516 0.33205,-0.0821 0.39274,-0.0842 0.30245,-0.0104 0.82164,0.0955 1.37873,0.13281 0.55709,0.0373 1.16162,0.006 1.65416,-0.30644 0.48152,-0.30536 0.711,-0.66938 0.69143,-1.02164 -0.0196,-0.35226 -0.28546,-0.65878 -0.7028,-0.84957 -0.37946,-0.17346 -0.57221,-0.38219 -0.66249,-0.58032 -0.0903,-0.19812 -0.0806,-0.39234 -0.031,-0.54105 0.0609,-0.18285 0.11227,-0.44805 0.0506,-0.69143 -0.0308,-0.12169 -0.0936,-0.23918 -0.20102,-0.32402 -0.10745,-0.0848 -0.25508,-0.1328 -0.44132,-0.1328 -0.70496,0 -1.59298,0.26919 -2.07636,0.68006 -0.25295,0.215 -0.41955,0.57136 -0.64234,0.93327 -0.22279,0.36191 -0.4945,0.72961 -0.92604,0.97876 -0.76527,0.44182 -2.36599,1.23989 -2.84169,1.47587 0.0242,-0.0914 0.0577,-0.18655 0.11938,-0.28112 0.17832,-0.27334 0.54922,-0.53484 1.39268,-0.53485 h 0.0429 l 0.0295,-0.0294 c 0.4294,-0.42941 0.72445,-1.31083 0.84181,-2.40244 0.11737,-1.0916 0.0471,-2.39157 -0.30489,-3.64629 -0.35203,-1.25472 -0.9874,-2.46462 -2.00194,-3.36155 -1.01453,-0.89693 -2.4094,-1.4764 -4.25969,-1.4764 z m 0,0.19948 c 1.80869,0 3.14874,0.5626 4.1274,1.42781 0.97866,0.86522 1.5968,2.03666 1.94097,3.26337 0.34417,1.22672 0.41385,2.50613 0.2992,3.57239 -0.11455,1.06544 -0.42383,1.91903 -0.78548,2.28152 -2.8e-4,2.8e-4 2.8e-4,0.002 0,0.002 -0.80924,0.0248 -1.28256,0.27731 -1.49035,0.59583 -0.21764,0.33363 -0.19482,0.6998 -0.19482,0.79478 0,0.11442 0.006,0.20124 0,0.22118 -0.003,0.01 4e-5,0.004 -0.008,0.008 -0.008,0.004 -0.0364,0.0139 -0.0899,0.0139 -0.0517,0 -0.10744,0.0132 -0.15245,0.0465 -0.045,0.0333 -0.0737,0.0814 -0.0935,0.13487 -0.0343,0.0925 -0.0432,0.22722 -0.0507,0.39068 -0.6776,0.4881 -1.65365,0.94929 -2.96881,0.94929 -1.4343,0 -2.48857,-0.37096 -3.1874,-0.73638 -0.2009,-0.10506 -0.36229,-0.20688 -0.50229,-0.30076 -0.0441,-0.32926 -0.0835,-0.59316 -0.12713,-0.81132 a 0.1,0.1 0 0 0 -0.0119,-0.0568 c -0.0282,-0.13253 -0.0579,-0.25135 -0.093,-0.34468 -0.0996,-0.26432 -0.26226,-0.40867 -0.48473,-0.45733 -0.55005,-0.12032 -1.617,-0.0533 -2.09341,-0.8785 -1.06802,-1.85333 -1.17502,-4.3892 -0.21497,-6.45336 0.96004,-2.06415 2.97244,-3.6623 6.18153,-3.6623 z m -10.99209,7.2595 c 1.13084,0 1.92253,0.8948 2.31459,1.45934 0.39747,0.57236 0.93312,1.42401 1.81436,1.83968 0.83306,0.39297 3.22874,1.29677 3.38997,1.35754 0.0428,0.21329 0.0841,0.47951 0.12971,0.82424 l 0.006,0.045 0.0372,0.0253 c 0.15098,0.1026 0.33145,0.2144 0.55294,0.33022 0.72285,0.37798 1.81204,0.75964 3.28093,0.75964 1.37993,0 2.41645,-0.48942 3.12126,-1.00407 l 0.0393,-0.0295 0.002,-0.0486 c 0.007,-0.19997 0.0228,-0.32883 0.045,-0.3886 0.0111,-0.0299 0.0201,-0.0391 0.0253,-0.0429 0.005,-0.004 0.0106,-0.008 0.0331,-0.008 0.0708,0 0.12917,-0.007 0.18139,-0.0331 0.0522,-0.0266 0.0908,-0.0783 0.10593,-0.12712 0.0303,-0.0977 0.01,-0.18277 0.01,-0.28112 0,-0.0369 5.9e-4,-0.0948 0.004,-0.1602 0.20848,-0.10317 2.11682,-1.04938 2.98173,-1.54874 0.47386,-0.27358 0.76666,-0.67473 0.9958,-1.04696 0.22915,-0.37223 0.40228,-0.71534 0.60152,-0.8847 0.42102,-0.35785 1.29606,-0.63046 1.94768,-0.63046 0.1529,0 0.25127,0.0365 0.31833,0.0894 0.0671,0.0529 0.10787,0.12471 0.13074,0.21498 0.0457,0.18055 0.005,0.42403 -0.047,0.58032 -0.0635,0.19044 -0.0739,0.43888 0.0393,0.6873 0.11319,0.24841 0.34982,0.49126 0.76171,0.67955 0.37399,0.17097 0.57167,0.41773 0.58601,0.67592 0.0144,0.25819 -0.15449,0.56138 -0.59996,0.84388 -0.43445,0.2755 -0.99326,0.31159 -1.53273,0.27544 -0.53947,-0.0361 -1.04719,-0.14499 -1.40043,-0.13281 -0.10323,0.004 -0.24568,0.0363 -0.4377,0.0894 -0.19202,0.0531 -0.42949,0.12699 -0.6935,0.21497 -0.52801,0.17596 -1.16695,0.40759 -1.78697,0.63872 -1.13963,0.42484 -2.11355,0.80976 -2.27944,0.8754 v -0.16433 l -0.15245,0.0977 c -0.73359,0.46901 -1.72911,0.8692 -2.99982,0.8692 -1.52067,0 -2.66021,-0.39597 -3.41994,-0.79324 -0.0794,-0.0415 -0.15368,-0.0845 -0.22635,-0.12661 l -0.17415,-0.1018 0.0258,0.20102 c 0.0117,0.092 0.0237,0.18787 0.0341,0.27182 l -5.24309,-2.04897 -0.0103,-0.002 c 0,0 -0.46139,-0.0833 -1.00975,-0.1173 -0.54837,-0.034 -1.1808,-0.0297 -1.56787,0.19379 -0.13559,0.0783 -0.35054,0.0813 -0.59014,0.0134 -0.2396,-0.0679 -0.49909,-0.20442 -0.71469,-0.37104 -0.2156,-0.16662 -0.38733,-0.36526 -0.46095,-0.54673 -0.0736,-0.18148 -0.0633,-0.32944 0.0801,-0.47284 0.33418,-0.33419 0.54129,-0.46673 0.709,-0.57619 0.16771,-0.10947 0.30552,-0.20649 0.44131,-0.43564 0.0891,-0.15038 0.0788,-0.34471 0.0625,-0.5643 -0.0163,-0.21959 -0.0489,-0.46478 -0.0527,-0.68937 -0.004,-0.22458 0.0229,-0.4257 0.10542,-0.55862 0.0824,-0.13292 0.21372,-0.21704 0.48628,-0.21704 z m 7.28948,0.40359 c 0,0 -0.51097,0.11955 -0.31161,0.86352 0.19934,0.74397 0.89531,1.14308 1.6707,1.14308 0.77538,0 2.05254,-1.40752 1.01492,-2.0066 z m 5.10356,0 c -1.03762,0.66996 0.24006,2.24379 1.01544,2.24379 0.77539,0 1.47136,-0.44647 1.6707,-1.27847 0.19936,-0.832 -0.31212,-0.96532 -0.31212,-0.96532 z m -1.28674,3.04478 c -0.46349,0.0113 -1.67339,0.56534 -1.32292,1.75235 0.0741,0.12832 0.59943,0.19226 0.78031,0.0114 0.18088,-0.18088 1.0514,-0.29431 1.46968,0.0222 0.0565,-0.44089 -0.12444,-1.78594 -0.92707,-1.78594 z m -3.1533,2.84272 c 0.0203,0.011 0.0378,0.022 0.0589,0.0331 0.78425,0.41009 1.95805,0.81649 3.51348,0.81649 1.23756,0 2.20768,-0.37886 2.95331,-0.82786 3.7e-4,0.15794 0,0.30777 0,0.52555 0,0.74053 -0.46961,1.25222 -1.11363,1.5937 -0.64401,0.34149 -1.45673,0.4961 -2.07997,0.4961 l -0.002,0.002 c 0,0 -0.75101,0.0133 -1.53686,-0.2558 -0.17935,-0.0614 -0.35868,-0.1386 -0.53175,-0.23151 a 0.1,0.1 0 0 0 -0.003,-0.002 c -0.58391,-0.31434 -1.08669,-0.82834 -1.19941,-1.69447 -0.0242,-0.18607 -0.0409,-0.31496 -0.0589,-0.45527 z m -0.0527,0.8909 c 0.18756,0.6227 0.59257,1.04541 1.05472,1.3348 -0.2339,0.0969 -1.06399,0.44139 -2.08205,0.87385 -0.58597,0.24891 -1.19156,0.50927 -1.69137,0.73071 -0.49981,0.22144 -0.889,0.40075 -1.0604,0.49971 -0.34431,0.19879 -0.7524,0.62865 -1.15807,1.08417 -0.40566,0.45552 -0.80322,0.93551 -1.08417,1.21646 -0.25953,0.25955 -0.65239,0.33802 -1.04489,0.31264 -0.3925,-0.0254 -0.77846,-0.15564 -0.99219,-0.27905 -0.0951,-0.0549 -0.13798,-0.11824 -0.1602,-0.20515 -0.0222,-0.0869 -0.018,-0.19918 0.002,-0.32815 0.04,-0.25794 0.14469,-0.57224 0.14469,-0.88315 0,-0.16148 -0.0483,-0.28613 -0.13126,-0.37259 -0.0829,-0.0865 -0.18872,-0.13304 -0.29869,-0.17621 -0.21995,-0.0863 -0.46904,-0.16011 -0.69918,-0.42737 -0.11079,-0.12866 -0.14893,-0.24868 -0.14831,-0.36948 6.3e-4,-0.12079 0.0446,-0.24687 0.12092,-0.37104 0.15269,-0.24835 0.43217,-0.48477 0.66611,-0.64854 0.0924,-0.0647 0.26784,-0.10792 0.49041,-0.12454 0.22258,-0.0166 0.49001,-0.009 0.77153,0.01 0.56303,0.0377 1.17708,0.11731 1.62109,0.1173 0.25472,0 0.70857,-0.12861 1.28674,-0.31832 0.57819,-0.18972 1.26566,-0.44344 1.92599,-0.69557 1.26355,-0.48244 2.36815,-0.93953 2.46651,-0.9803 z m 6.70088,0.17622 c 0.0723,0.0274 0.99315,0.37661 2.02417,0.74931 0.53601,0.19375 1.09061,0.38902 1.54668,0.54105 0.45608,0.15203 0.79931,0.25903 0.97048,0.27957 0.16391,0.0197 0.43809,0.003 0.78135,-0.016 0.34326,-0.0184 0.74986,-0.0387 1.1467,-0.0331 0.39685,0.006 0.7834,0.0381 1.08365,0.12299 0.30024,0.0848 0.50165,0.21642 0.57051,0.40463 0.16744,0.45766 0.21108,0.73455 0.17363,0.88263 -0.0187,0.074 -0.0516,0.12062 -0.1111,0.16382 -0.0595,0.0432 -0.14709,0.0799 -0.26562,0.11162 -0.2604,0.0698 -0.48087,0.17623 -0.63872,0.32815 -0.15785,0.15193 -0.25011,0.35251 -0.25011,0.58187 0,0.42168 0.0956,0.67267 0.19327,0.84181 0.0154,0.0267 0.0408,0.0865 0.0491,0.15245 0.008,0.0659 0.002,0.13626 -0.0351,0.20309 -0.0743,0.13365 -0.29388,0.28525 -0.89865,0.28525 -1.2019,0 -1.71501,-0.73928 -1.92547,-1.10381 -0.11635,-0.20155 -0.38734,-0.56637 -0.79323,-0.93121 -0.4059,-0.36484 -0.94543,-0.72646 -1.59577,-0.90072 -1.06295,-0.28482 -2.85127,-1.08628 -3.36155,-1.31878 0.0653,-0.03 0.13079,-0.0596 0.19379,-0.093 0.52933,-0.28068 0.96995,-0.69505 1.14204,-1.2516 z" /></g></svg>
