<?xml version="1.0" encoding="UTF-8" standalone="no"?>
<!-- Created with Inkscape (http://www.inkscape.org/) -->
<svg
   xmlns:dc="http://purl.org/dc/elements/1.1/"
   xmlns:cc="http://creativecommons.org/ns#"
   xmlns:rdf="http://www.w3.org/1999/02/22-rdf-syntax-ns#"
   xmlns:svg="http://www.w3.org/2000/svg"
   xmlns="http://www.w3.org/2000/svg"
   xmlns:sodipodi="http://sodipodi.sourceforge.net/DTD/sodipodi-0.dtd"
   xmlns:inkscape="http://www.inkscape.org/namespaces/inkscape"
   width="99.525002"
   height="130.425"
   id="svg2496"
   sodipodi:version="0.32"
   inkscape:version="0.46"
   version="1.0"
   sodipodi:docname="ADR_orientation.svg"
   inkscape:output_extension="org.inkscape.output.svg.inkscape">
  <defs
     id="defs2498">
    <inkscape:perspective
       sodipodi:type="inkscape:persp3d"
       inkscape:vp_x="0 : 526.18109 : 1"
       inkscape:vp_y="0 : 1000 : 0"
       inkscape:vp_z="744.09448 : 526.18109 : 1"
       inkscape:persp3d-origin="372.04724 : 350.78739 : 1"
       id="perspective2504" />
  </defs>
  <sodipodi:namedview
     id="base"
     pagecolor="#ffffff"
     bordercolor="#666666"
     borderopacity="1.0"
     inkscape:pageopacity="0.0"
     inkscape:pageshadow="2"
     inkscape:zoom="3.5422656"
     inkscape:cx="49.762501"
     inkscape:cy="65.212502"
     inkscape:document-units="px"
     inkscape:current-layer="layer1"
     showgrid="false"
     inkscape:window-width="640"
     inkscape:window-height="675"
     inkscape:window-x="44"
     inkscape:window-y="44" />
  <metadata
     id="metadata2501">
    <rdf:RDF>
      <cc:Work
         rdf:about="">
        <dc:format>image/svg+xml</dc:format>
        <dc:type
           rdf:resource="http://purl.org/dc/dcmitype/StillImage" />
      </cc:Work>
    </rdf:RDF>
  </metadata>
  <g
     inkscape:label="Calque 1"
     inkscape:groupmode="layer"
     id="layer1"
     transform="translate(-325.2375,-467.14968)">
    <path
       d="M 424.125,468.38718 L 420.375,468.38718 L 420.375,467.26218 L 424.125,467.26218 L 424.125,468.38718 z M 417.6,468.38718 L 414.075,468.38718 L 414.075,467.26218 L 417.6,467.26218 L 417.6,468.38718 z M 411.075,468.38718 L 407.475,468.38718 L 407.475,467.26218 L 411.075,467.26218 L 411.075,468.38718 z M 404.775,468.38718 L 400.95,468.38718 L 400.95,467.26218 L 404.775,467.26218 L 404.775,468.38718 z M 398.175,468.38718 L 394.35,468.38718 L 394.35,467.26218 L 398.175,467.26218 L 398.175,468.38718 z M 391.65,468.38718 L 387.825,468.38718 L 387.825,467.26218 L 391.65,467.26218 L 391.65,468.38718 z M 385.05,468.38718 L 381.3,468.38718 L 381.3,467.26218 L 385.05,467.26218 L 385.05,468.38718 z M 378.525,468.38718 L 374.775,468.38718 L 374.775,467.26218 L 378.525,467.26218 L 378.525,468.38718 z M 371.925,468.38718 L 368.175,468.38718 L 368.175,467.26218 L 371.925,467.26218 L 371.925,468.38718 z M 365.4,468.38718 L 361.65,468.38718 L 361.65,467.26218 L 365.4,467.26218 L 365.4,468.38718 z M 358.875,468.38718 L 355.35,468.38718 L 355.35,467.26218 L 358.875,467.26218 L 358.875,468.38718 z M 352.35,468.38718 L 348.75,468.38718 L 348.75,467.26218 L 352.35,467.26218 L 352.35,468.38718 z M 345.975,468.38718 L 342.225,468.38718 L 342.225,467.26218 L 345.975,467.26218 L 345.975,468.38718 z M 339.45,468.38718 L 335.625,468.38718 L 335.625,467.26218 L 339.45,467.26218 L 339.45,468.38718 z M 332.85,468.38718 L 329.1,468.38718 L 329.1,467.26218 L 332.85,467.26218 L 332.85,468.38718 z M 326.325,468.38718 L 325.8,468.38718 L 326.325,467.86218 L 326.325,471.23718 L 325.35,471.23718 L 325.35,467.26218 L 326.325,467.26218 L 326.325,468.38718 z M 325.35,474.01218 L 326.325,474.01218 L 326.325,477.98718 L 325.35,477.98718 L 325.35,474.01218 z M 325.35,480.76218 L 326.325,480.76218 L 326.325,484.66218 L 325.35,484.66218 L 325.35,480.76218 z M 325.35,487.51218 L 326.325,487.51218 L 326.325,491.18718 L 325.35,491.18718 L 325.35,487.51218 z M 325.35,494.26218 L 326.325,494.26218 L 326.325,497.93718 L 325.35,497.93718 L 325.35,494.26218 z M 325.35,500.78718 L 326.325,500.78718 L 326.325,504.68718 L 325.35,504.68718 L 325.35,500.78718 z M 325.35,507.46218 L 326.325,507.46218 L 326.325,511.43718 L 325.35,511.43718 L 325.35,507.46218 z M 325.35,514.21218 L 326.325,514.21218 L 326.325,518.11218 L 325.35,518.11218 L 325.35,514.21218 z M 325.35,520.96218 L 326.325,520.96218 L 326.325,524.86218 L 325.35,524.86218 L 325.35,520.96218 z M 325.35,527.71218 L 326.325,527.71218 L 326.325,531.61218 L 325.35,531.61218 L 325.35,527.71218 z M 325.35,534.46218 L 326.325,534.46218 L 326.325,538.36218 L 325.35,538.36218 L 325.35,534.46218 z M 325.35,541.21218 L 326.325,541.21218 L 326.325,545.11218 L 325.35,545.11218 L 325.35,541.21218 z M 325.35,547.88718 L 326.325,547.88718 L 326.325,551.56218 L 325.35,551.56218 L 325.35,547.88718 z M 325.35,554.41218 L 326.325,554.41218 L 326.325,558.31218 L 325.35,558.31218 L 325.35,554.41218 z M 325.35,561.16218 L 326.325,561.16218 L 326.325,565.06218 L 325.35,565.06218 L 325.35,561.16218 z M 325.35,567.91218 L 326.325,567.91218 L 326.325,571.81218 L 325.35,571.81218 L 325.35,567.91218 z M 325.35,574.66218 L 326.325,574.66218 L 326.325,578.56218 L 325.35,578.56218 L 325.35,574.66218 z M 325.35,581.33718 L 326.325,581.33718 L 326.325,585.31218 L 325.35,585.31218 L 325.35,581.33718 z M 325.35,588.08718 L 326.325,588.08718 L 326.325,592.06218 L 325.35,592.06218 L 325.35,588.08718 z M 326.325,594.83718 L 326.325,596.93718 L 325.8,596.41218 L 327.3,596.41218 L 327.3,597.46218 L 325.35,597.46218 L 325.35,594.83718 L 326.325,594.83718 z M 330.15,596.41218 L 333.9,596.41218 L 333.9,597.46218 L 330.15,597.46218 L 330.15,596.41218 z M 336.675,596.41218 L 340.425,596.41218 L 340.425,597.46218 L 336.675,597.46218 L 336.675,596.41218 z M 343.2,596.41218 L 347.025,596.41218 L 347.025,597.46218 L 343.2,597.46218 L 343.2,596.41218 z M 349.725,596.41218 L 353.55,596.41218 L 353.55,597.46218 L 349.725,597.46218 L 349.725,596.41218 z M 356.325,596.41218 L 360.15,596.41218 L 360.15,597.46218 L 356.325,597.46218 L 356.325,596.41218 z M 362.85,596.41218 L 366.675,596.41218 L 366.675,597.46218 L 362.85,597.46218 L 362.85,596.41218 z M 369.45,596.41218 L 373.275,596.41218 L 373.275,597.46218 L 369.45,597.46218 L 369.45,596.41218 z M 375.975,596.41218 L 379.5,596.41218 L 379.5,597.46218 L 375.975,597.46218 L 375.975,596.41218 z M 382.575,596.41218 L 386.1,596.41218 L 386.1,597.46218 L 382.575,597.46218 L 382.575,596.41218 z M 388.875,596.41218 L 392.625,596.41218 L 392.625,597.46218 L 388.875,597.46218 L 388.875,596.41218 z M 395.475,596.41218 L 399.225,596.41218 L 399.225,597.46218 L 395.475,597.46218 L 395.475,596.41218 z M 401.925,596.41218 L 405.75,596.41218 L 405.75,597.46218 L 401.925,597.46218 L 401.925,596.41218 z M 408.525,596.41218 L 412.35,596.41218 L 412.35,597.46218 L 408.525,597.46218 L 408.525,596.41218 z M 415.05,596.41218 L 418.875,596.41218 L 418.875,597.46218 L 415.05,597.46218 L 415.05,596.41218 z M 421.65,596.41218 L 424.125,596.41218 L 423.6,596.93718 L 423.6,595.88718 L 424.65,595.88718 L 424.65,597.46218 L 421.65,597.46218 L 421.65,596.41218 z M 424.65,592.81218 L 423.6,592.81218 L 423.6,589.13718 L 424.65,589.13718 L 424.65,592.81218 z M 424.65,586.28718 L 423.6,586.28718 L 423.6,582.38718 L 424.65,582.38718 L 424.65,586.28718 z M 424.65,579.53718 L 423.6,579.53718 L 423.6,575.63718 L 424.65,575.63718 L 424.65,579.53718 z M 424.65,572.86218 L 423.6,572.86218 L 423.6,568.88718 L 424.65,568.88718 L 424.65,572.86218 z M 424.65,566.11218 L 423.6,566.11218 L 423.6,562.21218 L 424.65,562.21218 L 424.65,566.11218 z M 424.65,559.36218 L 423.6,559.36218 L 423.6,555.46218 L 424.65,555.46218 L 424.65,559.36218 z M 424.65,552.61218 L 423.6,552.61218 L 423.6,548.71218 L 424.65,548.71218 L 424.65,552.61218 z M 424.65,545.86218 L 423.6,545.86218 L 423.6,541.96218 L 424.65,541.96218 L 424.65,545.86218 z M 424.65,539.11218 L 423.6,539.11218 L 423.6,535.51218 L 424.65,535.51218 L 424.65,539.11218 z M 424.65,532.43718 L 423.6,532.43718 L 423.6,528.76218 L 424.65,528.76218 L 424.65,532.43718 z M 424.65,525.91218 L 423.6,525.91218 L 423.6,522.01218 L 424.65,522.01218 L 424.65,525.91218 z M 424.65,519.16218 L 423.6,519.16218 L 423.6,515.26218 L 424.65,515.26218 L 424.65,519.16218 z M 424.65,512.41218 L 423.6,512.41218 L 423.6,508.51218 L 424.65,508.51218 L 424.65,512.41218 z M 424.65,505.66218 L 423.6,505.66218 L 423.6,501.76218 L 424.65,501.76218 L 424.65,505.66218 z M 424.65,498.91218 L 423.6,498.91218 L 423.6,495.01218 L 424.65,495.01218 L 424.65,498.91218 z M 424.65,492.23718 L 423.6,492.23718 L 423.6,488.26218 L 424.65,488.26218 L 424.65,492.23718 z M 424.65,485.48718 L 423.6,485.48718 L 423.6,481.58718 L 424.65,481.58718 L 424.65,485.48718 z M 424.65,478.73718 L 423.6,478.73718 L 423.6,475.13718 L 424.65,475.13718 L 424.65,478.73718 z M 424.65,471.98718 L 423.6,471.98718 L 423.6,468.38718 L 424.65,468.38718 L 424.65,471.98718 z"
       style="fill:#000000;fill-opacity:1;fill-rule:evenodd;stroke:#000000;stroke-width:0.22500001;stroke-linecap:round;stroke-linejoin:round;stroke-miterlimit:10;stroke-dasharray:none;stroke-opacity:1"
       id="path97" />
    <path
       d="M 343.725,584.26218 L 405.3,584.26218 L 405.3,578.33718 L 343.725,578.33718 L 343.725,584.26218 z"
       style="fill:#000000;fill-opacity:1;fill-rule:nonzero;stroke:none"
       id="path99" />
    <g
       id="g101"
       transform="matrix(1.25,0,0,-1.25,392.1,486.23718)">
      <path
         d="M 0,0 L 9.54,-23.22 L 1.62,-23.22 L 1.62,-69.72 L -1.98,-69.72 L -1.98,-23.04 L -10.08,-23.04 L 0,0"
         style="fill:#000000;fill-opacity:1;fill-rule:evenodd;stroke:none"
         id="path103" />
    </g>
    <g
       id="g105"
       transform="matrix(1.25,0,0,-1.25,356.325,486.23718)">
      <path
         d="M 0,0 L 9.48,-23.22 L 1.62,-23.22 L 1.62,-69.72 L -1.98,-69.72 L -1.98,-23.04 L -10.08,-23.04 L 0,0"
         style="fill:#000000;fill-opacity:1;fill-rule:evenodd;stroke:none"
         id="path107" />
    </g>
  </g>
</svg>
