<?xml version="1.0" encoding="UTF-8" standalone="no"?>
<!-- Created with Inkscape (http://www.inkscape.org/) -->

<svg
   xmlns:svg="http://www.w3.org/2000/svg"
   xmlns="http://www.w3.org/2000/svg"
   version="1.1"
   width="996"
   height="996"
   id="svg2">
  <defs
     id="defs6" />
  <g
     transform="translate(0.74924623,-0.49999925)"
     id="g2818">
    <path
       d="M 247.75428,748.24572 C 111.48943,611.98087 0,499.82232 0,499.00451 0,497.48096 492.97793,3.720462 496.38681,1.8297173 498.04343,0.91087027 528.45964,30.961167 745.69791,248.1416 c 136.08335,136.04712 247.89628,248.20879 248.47316,249.24815 0.9218,1.66079 -29.04309,31.981 -247.31735,250.25 C 610.25229,884.23789 497.81723,996 496.99803,996 496.17882,996 384.01913,884.51057 247.75428,748.24572 z"
       id="path2832"
       style="fill:#fea6ab" />
    <path
       d="M 248,747.5 -0.49849246,499 248.5,250 497.4985,0.99999849 746.24925,249.74925 995,498.4985 746.25075,747.24925 C 609.43867,884.06216 497.27583,996 497,996 496.72417,996 384.67417,884.175 248,747.5 z"
       id="path2830"
       style="fill:#fe5862" />
    <path
       d="m 495.88158,995.33333 c -0.0651,-0.45833 -0.0932,-1.08671 -0.0623,-1.3964 C 495.91513,992.97494 2.0428397,499.4852 1.2492409,499.75 0.8371584,499.8875 0.5,499.55 0.5,499 c 0,-0.55 0.45,-1.00034 1,-1.00075 0.55,-4.2e-4 112.37534,-111.37542 248.50076,-247.50001 L 497.50151,2.9999985 745.25076,250.75076 993,498.50151 745.56231,745.93769 c -136.09073,136.08989 -247.35323,247.8583 -247.25,248.37424 0.10323,0.51594 -0.37481,1.14432 -1.06231,1.3964 -0.6875,0.25209 -1.30329,0.0833 -1.36842,-0.375 z"
       id="path2828"
       style="fill:#fd1825" />
    <path
       d="M 275.74915,720.24915 C 154.33712,598.83619 55,499.04831 55,498.49831 55,497.9483 154.45013,398.04894 276.00028,276.49972 L 497.00057,55.50113 718.74972,277.25028 940.49887,498.99943 719.50028,719.99972 C 597.95106,841.54987 498.05093,941 497.5,941 496.94907,941 397.16118,841.66212 275.74915,720.24915 z M 708.85809,707.69753 C 891.75556,524.74127 917.08827,499.04197 916.16939,497.38623 915.59365,496.3488 821.33132,401.73886 706.69753,287.14191 523.74127,104.24444 498.04197,78.91173 496.38623,79.830609 495.3488,80.406346 400.73886,174.66868 286.14191,289.30247 103.24444,472.25873 77.91173,497.95803 78.830609,499.61377 c 0.575737,1.03743 94.838071,95.64737 209.471861,210.24432 182.95626,182.89747 208.65556,208.23018 210.3113,207.3113 1.03743,-0.57574 95.64737,-94.83807 210.24432,-209.47186 z M 469.40511,862.61331 c -0.85207,-2.22046 1.22182,-11.71299 3.86319,-17.68241 3.18352,-7.19468 11.6855,-16.78218 21.20099,-23.9079 12.87435,-9.64102 16.81622,-18.46477 10.89435,-24.38664 -1.45,-1.45 -3.66936,-2.63636 -4.93191,-2.63636 -3.41307,0 -6.6059,5.16764 -7.32489,11.85542 L 492.5,811.5 l -11,0 -11,0 0.15848,-8.10187 c 0.19876,-10.16157 2.69574,-16.35687 9.14665,-22.69391 7.54169,-7.40857 15.84744,-9.7619 27.19249,-7.70465 7.62629,1.38291 10.76648,2.88907 16.13453,7.73879 6.43848,5.81677 8.21442,10.2607 8.29704,20.76164 0.062,7.87835 -0.25836,9.62339 -2.57038,14.00204 -2.98656,5.65611 -10.38648,13.0141 -19.60881,19.49771 -3.4375,2.41668 -6.25,4.74335 -6.25,5.17038 0,0.42702 6.6375,0.90093 14.75,1.05314 l 14.75,0.27673 0,11 0,11 -31.2759,0.26428 c -26.22065,0.22157 -31.36369,0.0355 -31.81899,-1.15097 z m -68.9642,-374.9067 c -0.27499,-0.71661 -0.37419,-7.58125 -0.22044,-15.25477 L 400.5,458.5 l 101.5,0 101.5,0 0,15 0,15 -101.27956,0.25476 c -82.47617,0.20747 -101.37238,0.0129 -101.77953,-1.04815 z M 495.5,445.26957 c -3.85,-0.1863 -14.875,-0.96468 -24.5,-1.72976 -15.54525,-1.23566 -19.11965,-1.88099 -32,-5.77739 -13.11673,-3.9679 -15.62133,-5.11743 -26.25429,-12.04983 -10.50119,-6.8465 -12.21816,-8.38569 -16.10553,-14.43803 C 394.247,407.54855 391.34502,402.7 390.19134,400.5 c -2.05402,-3.9169 -20.57896,-78.38453 -21.82913,-87.75 -0.51183,-3.83435 -0.34538,-4.75 0.86348,-4.75 0.82364,0 5.69897,4.55319 10.83407,10.11819 C 398.38591,337.97861 405.85339,344 412.15728,344 413.72078,344 415,343.73606 415,343.41348 c 0,-0.32259 -1.42928,-2.57677 -3.17618,-5.00928 -4.107,-5.71889 -7.38528,-15.9437 -9.87564,-30.80166 -1.90952,-11.39256 -1.9238,-12.28023 -0.33661,-20.91684 1.45813,-7.93433 1.50647,-10.63286 0.40188,-22.43143 -0.89306,-9.53911 -0.9462,-13.72152 -0.18402,-14.4837 1.82242,-1.82242 16.66442,12.46311 22.75084,21.89782 5.31729,8.24248 10.73935,13.28012 8.82046,8.1951 -1.65497,-4.38564 -0.67769,-26.75601 1.85071,-42.36349 2.34834,-14.496 2.378,-15.30946 0.88268,-24.21007 -0.85102,-5.06554 -1.229,-9.52838 -0.83996,-9.91742 1.15869,-1.1587 17.45512,7.84411 21.0475,11.62749 3.86446,4.06992 9.15276,16.29142 10.16855,23.5 0.7754,5.50259 5.2286,16.5 6.68138,16.5 0.50516,0 2.07213,-2.5875 3.48215,-5.75 3.77261,-8.46146 7.26166,-35.83039 7.29834,-57.25 0.0177,-10.32931 0.57777,-19.30486 1.49761,-24 1.87576,-9.57447 9.78991,-30.4081 11.6945,-30.78526 1.10238,-0.2183 2.33674,3.8895 5.25863,17.5 3.81205,17.75698 3.84087,17.83534 18.12498,49.28526 15.78556,34.75571 18.16458,42.47407 16.87551,54.75 -0.7331,6.9813 -0.31324,7.35141 4.53754,4 2.66861,-1.84375 3.79055,-3.875 6.21382,-11.25 2.45643,-7.47591 3.18364,-12.08012 4.29431,-27.18861 1.33784,-18.19873 1.82832,-20.86372 3.63439,-19.74751 0.53084,0.32808 4.48737,7.64792 8.79228,16.26632 l 7.82712,15.6698 1.13862,12.15727 c 1.72696,18.43924 1.49813,35.86724 -0.54582,41.57002 -4.71314,13.14999 6.28227,1.68293 18.19671,-18.97729 2.94051,-5.09899 5.39042,-8.25 6.41436,-8.25 2.53349,0 9.57654,21.94444 11.13631,34.69806 l 1.24722,10.19806 -5.78968,16.80194 c -3.18433,9.24107 -6.85412,18.23442 -8.15509,19.98522 -3.2914,4.42946 -3.07129,5.62305 0.8846,4.79689 4.01429,-0.83835 14.59001,-7.43863 15.19023,-9.48017 0.24255,-0.825 1.66278,-10.95 3.15607,-22.5 2.82903,-21.88142 3.72677,-26.0364 5.40183,-25.00116 1.5411,0.95245 1.21498,33.83992 -0.57366,57.85097 -1.49975,20.13303 -1.79343,21.84753 -6.10638,35.65019 -4.24817,13.59531 -4.999,15.14339 -12.03403,24.81206 -8.76461,12.04576 -14.85585,16.95446 -32.28406,26.01653 l -11.5,5.9796 -19,1.59854 c -17.81667,1.49898 -27.09353,1.6809 -44,0.86284 z m 34.0364,-9.72367 c 9.48726,-4.47501 12.8288,-6.67406 18.61439,-12.25 6.69367,-6.45111 17.74612,-22.73232 16.36758,-24.11086 -0.32044,-0.32044 -3.50168,0.85683 -7.06943,2.61617 C 551.4637,404.75267 550.19038,405 540.98107,405 534.33541,405 531,404.62914 531,403.89021 c 0,-0.61039 2.32054,-3.64789 5.15676,-6.75 7.45601,-8.15502 13.73557,-18.05302 15.38493,-24.25011 1.54478,-5.8042 1.96451,-15.8901 0.66126,-15.8901 -0.43838,0 -2.57588,1.82693 -4.75,4.05985 C 543.44106,365.18023 521.48886,378 518.44513,378 c -1.2147,0 -1.51857,-0.6055 -1.12915,-2.25 1.88096,-7.94336 3.05661,-20.01876 3.04247,-31.25 -0.0154,-12.19164 -0.20359,-13.44301 -3.02716,-20.12447 -2.94771,-6.97518 -11.82622,-21.38911 -13.15809,-21.36165 -0.37026,0.008 -2.09047,4.17014 -3.8227,9.25 -1.73222,5.07987 -4.84855,13.51112 -6.92517,18.73612 -3.40977,8.57933 -3.78075,10.42067 -3.82798,19 -0.0288,5.225 0.55978,13.24278 1.30789,17.81728 1.83935,11.24723 1.402,11.53915 -9.47124,6.3218 -6.45447,-3.09707 -10.5086,-5.94402 -15.87662,-11.14909 C 461.59254,359.14549 458.04515,356 457.67429,356 457.30343,356 457,358.22227 457,360.93838 c 0,6.62519 7.30165,21.70765 16.47067,34.02223 3.82025,5.13083 6.42288,9.51009 5.92232,9.96504 -1.29545,1.17745 -30.79119,-3.1585 -32.776,-4.81815 -2.64823,-2.21439 -3.00334,-0.58023 -0.98583,4.53666 2.74358,6.95835 13.93378,18.35478 23.98257,24.42453 8.12952,4.91047 8.73843,5.09867 27.10132,8.37667 10.33172,1.84434 19.34147,3.39864 20.02167,3.45399 0.68019,0.0554 6.44005,-2.35369 12.79968,-5.35345 z"
       id="path2826"
       style="fill:#9f0f17" />
    <path
       d="M 276.24915,719.74915 C 155.11212,598.61118 56,499.0483 56,498.4983 56,496.86488 495.36642,58 497.0017,58 498.96302,58 938,497.04037 938,499.0017 938,500.63698 499.13173,940 497.4983,940 496.9483,940 397.38618,840.88712 276.24915,719.74915 z M 708.24911,709.25089 C 823.6121,593.88888 918,499.05098 918,498.5 918,497.1924 498.8076,78 497.5,78 496.19356,78 77,497.19179 77,498.49822 77,499.80582 496.19062,919 497.49822,919 c 0.55,0 95.3879,-94.3871 210.75089,-209.74911 z M 470.51542,862.02494 c -1.04139,-1.68499 1.25673,-11.66716 4.041,-17.55263 3.28804,-6.95034 11.72098,-16.16102 21.28207,-23.24483 12.67896,-9.39384 16.55912,-18.98371 10.23843,-25.3044 -3.81371,-3.81371 -7.17854,-3.77946 -10.44824,0.10636 -2.34499,2.78686 -3.13146,5.22648 -3.85899,11.97056 -0.26775,2.48202 -0.34161,2.5 -10.26969,2.5 l -10,0 0.17985,-7.69721 c 0.21217,-9.08006 2.30566,-14.56153 7.95748,-20.83541 6.58155,-7.30593 15.60002,-9.95141 27.23456,-7.98899 13.33218,2.24877 22.34535,11.19881 23.66234,23.49662 1.63003,15.22101 -2.86714,22.92071 -21.12005,36.1601 -4.44719,3.22569 -8.27219,6.31489 -8.5,6.86489 -0.26067,0.62937 5.33058,1.18531 15.08582,1.5 l 15.5,0.5 0,10 0,10 -30.18198,0.26456 c -19.41487,0.17018 -30.40339,-0.0937 -30.8026,-0.73962 z M 401.43911,486.70193 c -0.27599,-0.71924 -0.3752,-7.1339 -0.22046,-14.25482 L 401.5,459.5 l 100.5,0 100.5,0 0,14 0,14 -100.27954,0.25481 c -81.84127,0.20796 -100.3718,0.0144 -100.78135,-1.05288 z M 500,444.42359 c -1.375,-0.15221 -11.725,-0.81997 -23,-1.4839 -19.43111,-1.14421 -21.29567,-1.43592 -35.75998,-5.5946 -14.34868,-4.12544 -15.99895,-4.86561 -27.63456,-12.3945 l -12.37458,-8.00705 -6.11544,-9.99436 C 391.75195,401.45228 389,396.4985 389,395.94078 c 0,-0.55773 -4.22368,-18.21006 -9.38595,-39.22741 -10.31493,-41.99553 -11.19869,-46.23401 -9.81816,-47.08722 0.51535,-0.31851 4.89489,3.79781 9.7323,9.14737 12.67288,14.0146 24.73686,24.82949 28.54735,25.59159 4.04392,0.80878 8.92446,0.8191 8.92446,0.0189 0,-0.33882 -1.68309,-2.90886 -3.7402,-5.7112 -4.63202,-6.31007 -7.72217,-15.6211 -10.31162,-31.07024 -1.91222,-11.40868 -1.92567,-12.27006 -0.32742,-20.96686 1.43572,-7.8124 1.50662,-10.73717 0.51154,-21.10254 C 401.7328,250.95511 401.73294,251 403.08511,251 c 2.77303,0 15.24508,12.80643 20.35484,20.90057 3.23415,5.12308 6.72196,9.36158 8.62776,10.48474 l 3.19901,1.88532 -0.81943,-3.38532 c -1.59832,-6.60317 -0.70408,-27.90426 1.82402,-43.4483 2.33648,-14.36594 2.38093,-15.44359 0.96043,-23.28783 -0.81918,-4.52366 -1.19629,-8.51797 -0.83802,-8.87624 1.09504,-1.09504 16.41549,6.92682 19.43324,10.17534 3.4698,3.73512 8.73074,16.27038 9.67461,23.05172 0.75092,5.39504 6.21192,18.5 7.70918,18.5 0.50308,0 2.29514,-3.0375 3.98236,-6.75 4.28756,-9.43414 7.73964,-35.28383 7.77897,-58.25 0.0333,-19.42097 1.33642,-27.27827 6.94377,-41.86693 4.15621,-10.81322 4.69862,-11.85193 5.67771,-10.87285 0.32645,0.32646 2.32899,8.38896 4.45009,17.91667 3.78967,17.0228 4.09272,17.83452 17.48098,46.82311 15.61244,33.80445 17.9845,41.59468 16.8494,55.33608 l -0.6473,7.83609 4.98358,-2.52538 4.98359,-2.52537 3.31673,-10.31071 c 2.80218,-8.71112 3.51052,-12.94807 4.56585,-27.31071 0.68701,-9.35 1.28836,-17.1125 1.33632,-17.25 0.64751,-1.85637 3.3296,2.26228 9.44248,14.5 l 7.3678,14.75 1.13846,12.15727 c 0.62615,6.6865 1.13846,17.78395 1.13846,24.66101 0,10.37944 -0.36468,13.45671 -2.1465,18.1129 -1.18057,3.08504 -1.89739,5.85826 -1.59293,6.16272 0.30446,0.30447 1.87101,-0.1277 3.48121,-0.96037 3.5957,-1.85941 9.72157,-9.85748 17.20471,-22.46285 3.11513,-5.24744 6.1418,-9.70011 6.72595,-9.89483 1.97297,-0.65765 8.37835,19.57474 10.08091,31.84212 l 1.61243,11.61798 -5.83534,16.88202 c -3.54198,10.24719 -6.95447,18.31413 -8.68289,20.52593 -4.12204,5.27483 -3.78633,6.22397 1.8998,5.37128 3.15098,-0.47252 6.75685,-2.11367 10.7233,-4.88052 l 5.97595,-4.1686 1.12417,-8.48303 c 0.61829,-4.66567 1.93002,-14.67053 2.91494,-22.23303 0.98493,-7.5625 2.17857,-13.75 2.65253,-13.75 1.39597,0 0.98781,30.50752 -0.71377,53.34981 -1.49648,20.08901 -1.80013,21.86774 -6.05208,35.45164 -4.20127,13.42197 -4.94235,14.93813 -12.05092,24.65471 -8.57374,11.71932 -14.65174,16.57485 -32.4313,25.90839 l -10.39017,5.45441 -19,1.59316 c -16.93362,1.41988 -32.26431,1.81245 -39.5,1.01147 z m 29.73672,-7.96205 c 10.26819,-4.83453 12.75468,-6.51858 19.56358,-13.25 7.55758,-7.47159 18.82752,-24.41706 17.27296,-25.97161 -0.35401,-0.35402 -4.01027,1.02218 -8.125,3.0582 -6.91889,3.42356 -8.1442,3.70187 -16.29814,3.70187 -4.84923,0 -9.1059,-0.28911 -9.45926,-0.64247 -0.35336,-0.35336 1.90325,-3.39086 5.01469,-6.75 6.71074,-7.24499 12.86992,-16.48677 14.32949,-21.50123 1.32066,-4.53728 2.94388,-19.32041 2.24607,-20.45576 -0.28715,-0.46721 -3.05537,1.60829 -6.1516,4.61221 -5.4987,5.33477 -27.33424,18.34679 -29.02957,17.29902 -0.42384,-0.26195 -0.13069,-4.20801 0.65145,-8.76902 0.78214,-4.56101 1.49554,-14.36775 1.58534,-21.79275 0.1789,-14.79264 -0.83454,-18.96964 -7.5214,-31 -3.34337,-6.01508 -9.47719,-14 -10.75447,-14 -0.44288,0 -1.10913,1.90039 -1.48054,4.22308 -0.37142,2.3227 -3.15444,10.43988 -6.1845,18.03818 -6.98827,17.52403 -7.99582,23.01906 -6.52882,35.60722 0.61734,5.29733 1.40869,11.31902 1.75856,13.38152 0.57749,3.40435 0.43015,3.75 -1.59848,3.75 -4.5503,0 -16.40552,-7.29807 -23.88333,-14.70257 -4.04594,-4.00627 -7.75844,-7.03556 -8.25,-6.73176 -0.49156,0.3038 -0.89375,2.94055 -0.89375,5.85945 0,7.04798 6.88384,21.83116 15.76831,33.86278 3.56908,4.83334 6.208,9.06913 5.86427,9.41285 -0.34372,0.34373 -7.03917,-0.17744 -14.87877,-1.15814 -13.40083,-1.67639 -14.4474,-1.9663 -17.48883,-4.8445 -1.77926,-1.68377 -3.47508,-2.82134 -3.76849,-2.52793 -0.29342,0.29341 0.86515,3.86265 2.57458,7.93165 3.96626,9.44094 14.77997,20.83428 26.07492,27.47258 7.22588,4.24681 8.68194,4.67863 26.5,7.85901 10.36971,1.85091 19.41053,3.41058 20.09073,3.46593 0.68019,0.0554 6.53019,-2.39166 13,-5.43781 z"
       id="path2824"
       style="fill:#5d080d" />
    <path
       d="M 276.74915,719.24915 C 155.88712,598.38618 57,499.0483 57,498.4983 c 0,-0.55 99.00013,-99.99937 220.00028,-220.99858 L 497.00057,57.501135 717.74972,278.25028 938.49886,498.99943 718.50028,718.99972 C 597.50107,839.99987 498.05094,939 497.5,939 496.94906,939 397.61118,840.11212 276.74915,719.24915 z m 431.99996,-9.49826 C 824.3871,594.11388 919,499.05178 919,498.50178 919,497.19417 498.80937,77 497.50178,77 496.19417,77 76,497.19063 76,498.49822 76,499.80583 496.19063,920 497.49822,920 c 0.55,0 95.6129,-94.6121 211.25089,-210.24911 z M 471.50718,856.75 c 1.56755,-11.84372 9.98918,-23.78982 24.40998,-34.62561 4.1198,-3.09561 8.8613,-7.57875 10.53669,-9.96253 5.65753,-8.04969 3.41972,-17.73309 -4.54552,-19.66923 C 496.79526,791.24977 491,799.15155 491,807.36602 l 0,2.63398 -9.64822,0 -9.64821,0 0.61496,-7.97465 c 0.90387,-11.72122 6.20542,-20.61407 15.08679,-25.30666 5.98389,-3.16166 20.14504,-3.09352 26.7889,0.12891 10.72999,5.2043 14.71811,11.11411 15.53411,23.01931 0.48422,7.06467 0.26444,8.46972 -2.15103,13.75089 -3.40843,7.45215 -5.70597,9.84056 -18.37083,19.0974 -5.66144,4.13799 -10.12444,8.03238 -9.91777,8.65421 0.25279,0.76061 5.50292,1.22071 16.04353,1.40598 l 15.66777,0.2754 0,9.4746 0,9.47461 -30.09384,0 -30.09384,0 0.69486,-5.25 z M 402,473.5 l 0,-13.5 100,0 100,0 0,13.5 0,13.5 -100,0 -100,0 0,-13.5 z m 96.5,-30.09185 c -1.65,-0.14947 -11.775,-0.78359 -22.5,-1.40916 -17.79936,-1.03819 -20.76458,-1.48884 -34,-5.16722 -13.62282,-3.78604 -15.27195,-4.52292 -27.26064,-12.1808 L 401.97873,416.5 396.16726,407 390.35578,397.5 380.71489,358 c -10.5647,-43.285 -11.35899,-47 -10.04879,-47 0.48877,0 4.42513,3.9375 8.74747,8.75 17.48952,19.47286 26.43987,26.22714 34.77741,26.24442 4.25678,0.009 4.2702,-1.70135 0.0572,-7.28894 -4.82352,-6.39731 -8.46913,-17.31848 -10.75189,-32.20943 -1.58492,-10.33884 -1.58411,-11.56314 0.0133,-20.25553 1.48888,-8.10166 1.54906,-10.74935 0.48422,-21.30164 -0.66879,-6.62754 -0.96539,-12.30065 -0.65911,-12.60693 1.41441,-1.41441 14.10945,11.65536 19.27864,19.84771 5.09927,8.08152 11.43879,14.10152 13.1003,12.44001 0.33465,-0.33465 0.0166,-3.07564 -0.7068,-6.09109 -1.66347,-6.93409 -0.81435,-22.67144 2.26768,-42.02858 2.04931,-12.87104 2.119,-14.62927 0.8641,-21.8035 -0.75074,-4.29192 -1.13561,-8.03286 -0.85529,-8.31319 0.84802,-0.84802 16.06145,7.24256 18.36146,9.76472 2.88755,3.16646 7.99522,15.96571 9.30408,23.31499 1.29626,7.27858 6.40117,18.53698 8.40525,18.53698 0.87575,0 2.75,-3.09885 4.68736,-7.75 4.47382,-10.74059 7.89082,-36.26607 7.93159,-59.25 0.0336,-18.94511 1.22219,-26.43434 6.32313,-39.84185 3.52448,-9.26387 4.34096,-10.87862 5.09428,-10.07482 0.21477,0.22917 2.03421,7.84167 4.04321,16.91667 3.54622,16.01894 4.05976,17.38987 17.61401,47.02174 15.80249,34.54689 17.54733,40.37519 16.38425,54.72826 -0.36769,4.5375 -0.2778,8.23949 0.19975,8.22664 0.47756,-0.0128 3.08368,-1.25035 5.79139,-2.75 l 4.92311,-2.72664 3.70755,-12 c 3.21281,-10.39869 3.80425,-13.88305 4.43215,-26.11129 0.39852,-7.76121 1.03057,-14.60637 1.40454,-15.21146 0.37397,-0.6051 3.88732,5.33267 7.80745,13.19504 l 7.12752,14.29522 1.17878,13.41625 c 1.63537,18.61293 1.00113,37.04346 -1.48424,43.13047 -1.05867,2.59282 -1.6031,5.03597 -1.20985,5.42922 0.39325,0.39325 2.2591,-0.0213 4.14633,-0.92129 3.965,-1.89078 12.00101,-12.2119 19.086,-24.51329 2.70413,-4.69507 5.15224,-7.91418 5.64441,-7.42201 2.32165,2.32165 7.74788,21.51736 8.94235,31.63428 l 1.28942,10.92115 -5.45932,15.97995 c -3.65275,10.69198 -6.56341,17.4367 -8.79584,20.38218 -4.33337,5.71748 -3.71846,7.71822 2.08873,6.79619 4.35691,-0.69176 13.63795,-5.62421 16.47738,-8.75698 1.08228,-1.19408 2.33476,-7.27672 3.9123,-19 1.27622,-9.48399 2.50168,-17.91863 2.72325,-18.74363 1.09132,-4.06336 0.44675,27.72642 -0.9398,46.34981 -1.47776,19.84865 -1.83527,21.98096 -5.80945,34.65019 -3.93494,12.54411 -4.77231,14.23048 -11.82625,23.81658 -8.60326,11.69159 -14.42837,16.36408 -31.8177,25.52188 l -10.47193,5.51487 -18.3442,1.57334 c -16.27246,1.39564 -32.7884,1.78479 -41.6558,0.98148 z m 32.5,-6.58999 c 9.09659,-4.24352 11.60933,-5.99554 18.79973,-13.10818 5.67867,-5.61726 9.86303,-10.93176 13.25,-16.82865 2.72265,-4.74027 4.95027,-9.12777 4.95027,-9.75 0,-1.94187 -2.79246,-1.26099 -10.26795,2.50361 -6.67317,3.36055 -7.82048,3.62042 -15.19913,3.44257 -4.3896,-0.10579 -8.16467,-0.37592 -8.38902,-0.60028 -0.22436,-0.22436 1.9784,-3.01102 4.89503,-6.19258 8.01013,-8.73773 12.52626,-16.32938 14.2866,-24.01592 2.06912,-9.03476 2.78944,-18.07964 1.50315,-18.87461 -0.56321,-0.34809 -3.41127,1.72471 -6.32902,4.60622 -4.69453,4.63621 -27.21504,18.4213 -28.39945,17.38366 -0.21988,-0.19263 0.23012,-5.19534 1,-11.11712 0.76988,-5.92179 1.35447,-15.49188 1.29909,-21.26688 -0.0912,-9.50632 -0.42465,-11.30441 -3.52376,-19 -4.98149,-12.3698 -14.05702,-25.24194 -16.66185,-23.63207 -0.5139,0.31761 -1.21307,2.61087 -1.55371,5.09614 -0.34065,2.48528 -2.59686,9.36006 -5.01382,15.27731 -7.22966,17.69981 -8.08955,20.93787 -8.03533,30.25862 0.0272,4.675 0.61352,11.74458 1.30294,15.71017 0.68942,3.96559 0.96011,7.68488 0.60153,8.26507 -0.41126,0.66544 -3.67264,-0.49815 -8.83363,-3.15165 -5.91985,-3.04365 -10.23002,-6.26628 -15.59116,-11.65719 -6.86844,-6.90658 -7.50738,-7.31678 -8.75,-5.61739 -4.05744,5.54888 2.4046,23.4436 14.24633,39.45099 3.4584,4.675 5.83056,8.66187 5.27146,8.85971 -0.5591,0.19784 -7.02784,-0.42321 -14.37499,-1.38011 -12.31246,-1.60359 -13.57372,-1.96453 -16.10796,-4.60971 -2.6363,-2.7517 -5.37535,-3.78956 -5.37535,-2.03677 0,0.45821 1.52137,4.33181 3.38081,8.60798 2.74212,6.30606 4.86745,9.27151 11.25,15.69704 7.33392,7.38329 17.54562,14.55033 23.36919,16.40158 5.34293,1.69845 38.60839,7.20648 40.5,6.7059 1.1,-0.29109 6.725,-2.73345 12.5,-5.42746 z"
       id="path2822"
       style="fill:#2d0306" />
    <path
       d="M 277.24915,718.74915 C 156.66212,598.16118 58,499.04829 58,498.49829 c 0,-0.55 98.77513,-99.77436 219.50029,-220.49858 L 497.00057,58.501138 717.24972,278.75028 937.49886,498.99943 718.00029,718.49971 C 597.27607,839.22487 498.05094,938 497.5,938 496.94906,938 397.83618,839.33712 277.24915,718.74915 z m 431.99996,-8.49826 C 825.1621,594.33888 920,499.05178 920,498.50178 920,497.19417 498.80937,76 497.50178,76 496.19417,76 75,497.19063 75,498.49822 75,499.80583 496.19063,921 497.49822,921 c 0.55001,0 95.83791,-94.8371 211.75089,-210.74911 z M 472.55214,856.25 c 1.59499,-11.2293 10.49026,-23.89769 23.09642,-32.89326 14.88978,-10.62512 19.12035,-21.41365 11.32551,-28.88158 -4.13414,-3.96076 -9.35562,-3.98852 -12.48303,-0.0664 C 492.13048,797.3692 490,803.27873 490,806.86602 490,808.88013 489.51429,809 481.35326,809 l -8.64673,0 0.63548,-7.51779 c 1.62254,-19.19462 14.86626,-29.15767 34.02576,-25.59704 7.7679,1.44359 14.44108,5.66027 17.97064,11.35536 2.28483,3.68668 2.94478,6.13185 3.38383,12.53748 0.49078,7.16029 0.27685,8.54422 -2.13512,13.81266 -3.48453,7.61122 -4.06999,8.22177 -17.33712,18.08023 -6.1875,4.59776 -11.25,8.97957 -11.25,9.73735 0,2.23751 2.40308,2.59175 17.58179,2.59175 L 530,844 l 0,8.5 0,8.5 -29.06127,0 -29.06128,0 0.67469,-4.75 z M 403,473.5 l 0,-12.5 99,0 99,0 0,12.5 0,12.5 -99,0 -99,0 0,-12.5 z m 95.5,-31.09185 c -1.65,-0.14947 -11.775,-0.78359 -22.5,-1.40916 -17.79936,-1.03819 -20.76458,-1.48884 -34,-5.16722 -13.58931,-3.77673 -15.28507,-4.53255 -27,-12.03424 -12.45763,-7.97728 -12.51889,-8.03542 -18.07146,-17.15097 L 391.35708,397.5 381.73639,358 c -12.8184,-52.62895 -12.33218,-48.04299 -4.13496,-39 9.63821,10.63266 23.38291,23.7759 26.81072,25.63751 3.53969,1.92236 14.04979,3.04211 14.9458,1.59232 0.34776,-0.56268 -1.32379,-3.68022 -3.71457,-6.92786 -5.23418,-7.11014 -8.77488,-17.48627 -11.13515,-32.63191 -1.58665,-10.18146 -1.58561,-11.4112 0.0174,-20.53689 1.44827,-8.24494 1.53709,-11.2511 0.58974,-19.95928 C 404.5019,260.53511 404,255.23768 404,254.40182 c 0,-3.16652 12.09969,9.08411 17.67099,17.89142 C 426.90445,280.5665 432.5218,286 435.84154,286 c 1.04243,0 1.21647,-0.9117 0.71587,-3.75 -1.95626,-11.09168 -1.7106,-21.37061 0.95411,-39.92131 2.58724,-18.01135 2.71871,-22.92754 0.86147,-32.21376 l -0.6559,-3.2795 7.89145,3.97119 c 4.3403,2.18416 8.63,4.80869 9.53266,5.83229 2.47711,2.809 7.60861,16.09097 8.79812,22.77235 1.19781,6.72801 6.61212,19.20264 8.67863,19.99563 1.71294,0.65731 3.61894,-2.19415 7.00264,-10.47627 3.86552,-9.46147 7.3152,-36.68495 7.35132,-58.01384 0.0155,-9.12077 0.5303,-19.24577 1.14411,-22.5 1.54351,-8.18314 8.06314,-25.86415 8.93362,-24.22763 0.38349,0.72097 2.12096,7.83585 3.86105,15.81085 2.98121,13.66321 3.96984,16.2614 17.13106,45.02174 15.90146,34.7484 17.52555,40.22678 16.37271,55.22826 -0.48927,6.36662 -0.35585,8.75 0.4898,8.75 1.72229,0 10.55851,-4.63634 11.76296,-6.17199 0.57287,-0.73041 2.66136,-6.72801 4.64109,-13.32801 3.07704,-10.25825 3.69798,-14.02784 4.27804,-25.97101 l 0.67854,-13.971 6.74386,13.471 c 6.63611,13.25578 6.76181,13.6556 7.86755,25.02396 0.61804,6.35413 1.1237,17.67932 1.1237,25.1671 0,11.3922 -0.32642,14.37564 -2,18.27995 -2.48865,5.80578 -2.56796,8.50121 -0.25,8.49626 5.05975,-0.0108 13.88057,-9.7944 23.26132,-25.80023 2.35441,-4.01718 4.61917,-6.94218 5.0328,-6.5 2.10342,2.24861 6.92633,19.99123 8.08006,29.72511 l 1.29445,10.92115 -5.45932,15.97995 c -3.58111,10.48227 -6.57743,17.45549 -8.70931,20.26886 -1.7875,2.35891 -3.25,4.96059 -3.25,5.78152 0,3.88218 9.18706,2.64093 16.85043,-2.27664 7.93157,-5.08968 8.35126,-5.88531 10.22542,-19.385 1.63739,-11.79422 1.69915,-11.9772 1.8097,-5.36117 0.063,3.7674 -0.59415,16.3674 -1.46022,28 -1.47844,19.85768 -1.83369,21.97519 -5.81325,34.65019 -3.90565,12.43955 -4.81693,14.28811 -11.60107,23.53308 -8.31728,11.33424 -13.85225,15.75465 -31.10041,24.83784 l -10.4106,5.48241 -18.41087,1.57913 c -10.12598,0.86853 -18.55929,1.43071 -18.7407,1.24931 -0.1814,-0.18141 4.05349,-2.29574 9.41087,-4.69851 8.54354,-3.83175 10.88286,-5.47896 19.03384,-13.40249 8.67278,-8.43077 16.08804,-18.87766 19.18929,-27.03456 1.57275,-4.13665 -0.57977,-4.00841 -10.30227,0.61376 -8.65164,4.11306 -9.59897,4.34445 -16.45463,4.01916 l -7.27447,-0.34517 5.17983,-5.66698 c 10.86525,-11.88709 14.31619,-19.21702 15.82447,-33.61168 1.30009,-12.40787 0.13369,-13.26524 -7.49295,-5.50776 -4.55984,4.63805 -26.07455,17.67366 -27.2423,16.5059 -0.24334,-0.24334 0.15354,-4.40491 0.88195,-9.24794 0.72842,-4.84302 1.2974,-13.9805 1.26441,-20.3055 -0.0546,-10.4627 -0.34448,-12.22362 -3.21387,-19.52244 -3.35016,-8.52171 -8.51884,-17.01302 -13.9799,-22.9667 -2.6801,-2.92187 -3.60402,-3.39778 -4.75,-2.44671 -0.78248,0.64941 -1.43219,2.58814 -1.44379,4.30829 -0.0209,3.09696 -1.44251,7.37585 -8.45639,25.45263 -5.96687,15.37833 -6.38612,21.59535 -2.86967,42.55457 l 0.65091,3.87964 -8.40188,-4.31608 c -6.18957,-3.17961 -10.29503,-6.24183 -15.59165,-11.62964 C 461.35586,355.2911 457.63222,352 457.03548,352 455.46908,352 454,356.47757 454,361.25176 c 0,5.68158 7.74826,22.14235 15.14362,32.17182 3.2134,4.35797 5.6543,8.11184 5.42421,8.34192 -0.23009,0.23009 -6.18948,-0.34433 -13.24309,-1.27649 -12.2154,-1.6143 -12.99304,-1.85623 -16.3669,-5.09192 -6.8101,-6.53118 -7.70262,-3.74333 -2.57601,8.04635 2.78801,6.4116 4.85121,9.25556 11.75,16.19647 8.90087,8.95521 18.82299,15.59772 25.9932,17.40153 2.40623,0.60533 10.22497,2.14651 17.37497,3.42484 11.35129,2.02946 11.81051,2.92121 1,1.94187 z"
       id="path2820"
       style="fill:#010000" />
  </g>
</svg>
